<?xml version="1.0" encoding="UTF-8"?>
<svg width="107px" height="23px" viewBox="0 0 107 23" version="1.1" xmlns="http://www.w3.org/2000/svg" xmlns:xlink="http://www.w3.org/1999/xlink">
    <!-- Generator: Sketch 48.1 (47250) - http://www.bohemiancoding.com/sketch -->
    <title>Group 2</title>
    <desc>Created with Sketch.</desc>
    <defs></defs>
    <g id="Landing-ebook" stroke="none" stroke-width="1" fill="none" fill-rule="evenodd" transform="translate(-969.000000, -1684.000000)">
        <g id="Group-14-Copy-2" transform="translate(838.000000, 1647.000000)">
            <g id="Group-12" transform="translate(131.000000, 37.000000)">
                <g id="Group-5">
                    <g id="Group-2">
                        <path d="M4.46658295,7.17618898 L4.46658295,4.7363556 C4.46658295,1.9467747 4.88167992,1.45581581 5.75373238,1.45581581 L6.86186689,1.45581581 C6.86186689,1.45581581 6.99986047,1.23979915 6.99986047,0.74345953 C6.99986047,0.247251148 6.86186689,0.0580069042 6.86186689,0.0580069042 L6.79056788,0.052494936 C6.63331938,0.040158626 6.08860053,0 5.69806056,0 C4.50913911,0 3.74061672,0.373238995 3.27947537,1.17457419 C2.87554067,1.87656272 2.69540952,2.93459816 2.69540952,4.60551197 L2.69540952,7.33341131 C2.69540952,8.92558272 2.26426678,10.8236684 0.210548347,10.8236684 L0.13297056,10.8236684 C0.13297056,10.8236684 0,11.0475593 0,11.446652 C0,11.845876 0.13297056,12.0697669 0.13297056,12.0697669 L0.210687875,12.0697669 C2.26440631,12.0697669 2.69554904,13.9678526 2.69554904,15.560024 L2.69554904,18.394488 C2.69554904,21.3814499 3.17399191,23 5.69820008,23 C6.01241803,23 6.46853635,22.9728339 6.79098647,22.9473738 L6.86200642,22.9417306 C6.86200642,22.9417306 7,22.6746626 7,22.2258309 C7,21.776868 6.86200642,21.544053 6.86200642,21.544053 L5.75387191,21.544053 C4.88181945,21.544053 4.46672248,21.0532253 4.46672248,18.2636444 L4.46672248,15.71764 C4.46672248,13.2943425 3.73601228,11.8597872 2.29370727,11.4469145 C3.73573322,11.0337794 4.46658295,9.59896151 4.46658295,7.17618898 Z" id="Shape" fill="#000000"></path>
                        <path d="M12.3846086,8 L9.1191501,8.0021408 C9.1191501,8.0021408 9.00495779,8.20003088 9.00015106,8.50001029 C8.99508451,8.79985591 9.1191501,9.03561136 9.1191501,9.03561136 L11.4175465,9.27471182 L11.4175465,20.8814533 C11.4175465,20.8814533 11.7058204,21 12.2284548,21 C12.7509594,21 12.9992205,20.8814533 12.9992205,20.8814533 L13,8.63381021 C13.0001299,8.28365583 12.7243275,8 12.3846086,8 Z" id="Shape" fill="#000000"></path>
                        <path d="M31,2.45994834 C31,2.13096389 30.9173478,2 30.9173478,2 L27.9502764,2 L27.9521289,2.00275575 C27.9515589,2.00275575 27.9508464,2.00262453 27.9501339,2.00262453 C27.5774864,2.00262453 27.2752359,2.28082438 27.2749509,2.62398127 L27.2745234,2.62437495 L27.2745234,8.29348427 C26.0816241,8.06895599 24.9974553,7.96883029 23.8314893,7.96883029 C19.0606048,7.96883029 17,11.189256 17,14.8339365 C17,18.1791585 18.5723868,21 22.2050935,21 C24.5364555,21 25.9731788,20.1265574 27.4643384,18.6284775 L27.654011,20.7253433 C27.654011,20.7253433 27.8357033,20.8593254 28.2971306,20.8593254 C28.7940413,20.8593254 29.009507,20.7253433 29.009507,20.7253433 L29.009507,3.20452662 L30.9174903,2.92186507 C30.9173478,2.9219963 31,2.78906401 31,2.45994834 Z M27.2745234,17.0557298 C25.6209094,18.8783325 24.2108344,19.6771072 22.4761357,19.6771072 C19.7382104,19.6771072 18.8705048,17.0809252 18.8705048,14.7591375 C18.8705048,11.3141835 20.4428916,9.21705528 23.6690349,9.21705528 C24.9973128,9.21705528 26.244221,9.44171478 27.2745234,9.79117054 L27.2745234,17.0557298 Z" id="Shape" fill="#000000"></path>
                        <path d="M44.9038286,19.8206762 L42.9774424,19.4980188 L42.9774424,12.1361754 C42.9774424,10.0928079 41.8516457,8 37.9108395,8 C36.112879,8 34.370402,8.30958544 33.0818538,8.71740472 C32.7860899,8.78884752 32.567411,9.02336625 32.5669671,9.30486639 L32.5638601,9.30616065 L32.5644519,11.8572637 C32.5644519,11.8572637 32.77884,11.9538151 33.0966494,11.9538151 C33.4141628,11.9538151 33.6289948,11.8563578 33.6289948,11.8563578 L33.9928184,9.88223289 C35.1197988,9.55142169 36.3688428,9.35430688 37.5169808,9.35430688 C40.2470636,9.35430688 41.1760789,10.4377265 41.1760789,12.7027996 L41.1760789,13.6384154 L38.1925476,13.6384154 C34.6743035,13.6384154 32,14.8447891 32,17.4054697 C32,19.6951336 33.688769,21 36.7286716,21 C38.530331,21 39.8247974,20.5568476 41.3731562,19.399785 L41.488266,20.1932918 C41.5354639,20.5080542 41.8334471,20.7301481 42.1854343,20.7288539 L42.1858782,20.7291127 L42.9774424,20.7291127 L44.9038286,20.7289833 C44.9038286,20.7289833 45,20.5537414 45,20.2787125 C45,20.0031659 44.9038286,19.8206762 44.9038286,19.8206762 Z M41.1762269,18.11938 C39.853205,19.0551252 38.6427775,19.695263 36.8980811,19.695263 C34.9839752,19.695263 33.9987367,18.784238 33.9987367,17.3315678 C33.9987367,15.8048664 35.4062415,14.9185616 38.2487708,14.9185616 L41.1762269,14.9185616 L41.1762269,18.11938 Z" id="Shape" fill="#000000"></path>
                        <text id="BLOG" font-family="Lato-Black, Lato" font-size="18" font-weight="700" letter-spacing="3.0999999" fill="#FF4D3D">
                            <tspan x="50" y="20">BLOG</tspan>
                        </text>
                    </g>
                </g>
            </g>
        </g>
    </g>
</svg>