<?xml version="1.0" encoding="UTF-8"?>
<svg width="173px" height="23px" viewBox="0 0 173 23" version="1.1" xmlns="http://www.w3.org/2000/svg" xmlns:xlink="http://www.w3.org/1999/xlink">
    <!-- Generator: Sketch 44.1 (41455) - http://www.bohemiancoding.com/sketch -->
    <title>Group 17</title>
    <desc>Created with Sketch.</desc>
    <defs></defs>
    <g id="Medidas" stroke="none" stroke-width="1" fill="none" fill-rule="evenodd">
        <g id="1.-Home" transform="translate(-959.000000, -3131.000000)" fill="#FFFFFF">
            <g id="Group-5" transform="translate(959.000000, 3131.000000)">
                <g id="Group-17">
                    <path d="M4.17213054,7.10006233 L4.17213054,4.68611125 C4.17213054,1.92612287 4.5598629,1.44037218 5.37442668,1.44037218 L6.40950918,1.44037218 C6.40950918,1.44037218 6.53840575,1.22664708 6.53840575,0.735572742 C6.53840575,0.244628252 6.40950918,0.0573915537 6.40950918,0.0573915537 L6.34291044,0.0519380577 C6.1960283,0.0397326141 5.68721918,0 5.32242493,0 C4.21188125,0 3.49402248,0.36927959 3.06328115,1.16211404 C2.68597521,1.85665572 2.51771891,2.90346727 2.51771891,4.55665564 L2.51771891,7.25561681 C2.51771891,8.8308981 2.11499857,10.7088484 0.19666828,10.7088484 L0.124204686,10.7088484 C0.124204686,10.7088484 0,10.9303642 0,11.3252233 C0,11.7202122 0.124204686,11.9417281 0.124204686,11.9417281 L0.19679861,11.9417281 C2.11512891,11.9417281 2.51784924,13.8196784 2.51784924,15.3949597 L2.51784924,18.1993551 C2.51784924,21.1546306 2.96475151,22.7560107 5.32255526,22.7560107 C5.61605889,22.7560107 6.04210833,22.7291328 6.34330143,22.7039428 L6.40963951,22.6983595 C6.40963951,22.6983595 6.53853608,22.4341246 6.53853608,21.9900542 C6.53853608,21.545854 6.40963951,21.3155087 6.40963951,21.3155087 L5.37455701,21.3155087 C4.55999323,21.3155087 4.17226087,20.8298879 4.17226087,18.0698995 L4.17226087,15.5509037 C4.17226087,13.1533131 3.48972158,11.7339758 2.14249825,11.325483 C3.48946092,10.9167305 4.17213054,9.49713353 4.17213054,7.10006233 Z" id="Shape"></path>
                    <path d="M10.9706005,5.12389033 C11.6648695,5.12389033 12.2104317,4.58035856 12.2104317,3.88880332 C12.2104317,3.19711824 11.6648695,2.65384615 10.9706005,2.65384615 C10.2764618,2.65384615 9.73076923,3.19724808 9.73076923,3.88880332 C9.73089956,4.58035856 10.2764618,5.12389033 10.9706005,5.12389033 Z" id="Shape"></path>
                    <path d="M11.3570525,7.96153846 L8.08107248,7.96361598 C8.08107248,7.96361598 7.96651223,8.15565695 7.96169001,8.44676977 C7.95660713,8.73775273 8.08107248,8.96653988 8.08107248,8.96653988 L10.3868745,9.19857315 L10.3868745,20.4622499 C10.3868745,20.4622499 10.6760772,20.5772927 11.2003956,20.5772927 C11.7245837,20.5772927 11.9736447,20.4622499 11.9736447,20.4622499 L11.9744267,8.57661491 C11.974557,8.23681017 11.697866,7.96153846 11.3570525,7.96153846 Z" id="Shape"></path>
                    <path d="M28.7271073,3.10895338 C28.7271073,2.78343161 28.6515158,2.65384615 28.6515158,2.65384615 L25.9379106,2.65384615 L25.9396049,2.6565729 C25.9390835,2.6565729 25.9384319,2.65644306 25.9377802,2.65644306 C25.5969668,2.65644306 25.3205364,2.93171476 25.3202757,3.27125981 L25.3198847,3.27164935 L25.3198847,8.88108942 C24.2288906,8.65892438 23.2373384,8.55985254 22.1709766,8.55985254 C17.8076517,8.55985254 15.9230769,11.7463822 15.9230769,15.3527013 C15.9230769,18.6627137 17.3611404,21.4538649 20.683518,21.4538649 C22.8157202,21.4538649 24.1297093,20.5896156 25.4934846,19.1073034 L25.6669541,21.182099 C25.6669541,21.182099 25.8331251,21.3146709 26.2551343,21.3146709 C26.7095957,21.3146709 26.906655,21.182099 26.906655,21.182099 L26.906655,3.84569473 L28.6516461,3.56600829 C28.6515158,3.56613814 28.7271073,3.43460501 28.7271073,3.10895338 Z M25.3198847,17.5511094 C23.807533,19.3545286 22.5179157,20.144896 20.9314061,20.144896 C18.4273718,20.144896 17.6337912,17.5760397 17.6337912,15.2786895 C17.6337912,11.8699948 19.0718547,9.79493955 22.0224002,9.79493955 C23.2372081,9.79493955 24.3775974,10.0172344 25.3198847,10.3630121 L25.3198847,17.5511094 Z" id="Shape"></path>
                    <path d="M40.5589262,19.8205552 L38.862027,19.4968512 L38.862027,12.1111296 C38.862027,10.0611344 37.8703444,7.96153846 34.3989994,7.96153846 C32.8152267,7.96153846 31.2803279,8.27212805 30.1452822,8.6812701 C29.8847521,8.75294462 29.692124,8.98822402 29.691733,9.2706372 L29.6889961,9.27193566 L29.6895174,11.8313133 C29.6895174,11.8313133 29.8783659,11.9281778 30.1583152,11.9281778 C30.4380038,11.9281778 30.6272433,11.8304044 30.6272433,11.8304044 L30.9477252,9.84987639 C31.9404504,9.5179922 33.040698,9.32023805 34.0520604,9.32023805 C36.4569133,9.32023805 37.2752567,10.4071718 37.2752567,12.6795916 L37.2752567,13.6182422 L34.6471481,13.6182422 C31.5480262,13.6182422 29.1923077,14.8285288 29.1923077,17.3975149 C29.1923077,19.6946054 30.6798967,21.0037041 33.3576611,21.0037041 C34.944692,21.0037041 36.0849509,20.5591143 37.4488565,19.3982988 L37.5502534,20.1943793 C37.5918288,20.5101627 37.8543138,20.732977 38.1643694,20.7316785 L38.1647604,20.7319382 L38.862027,20.7319382 L40.5589262,20.7318084 C40.5589262,20.7318084 40.6436409,20.5559981 40.6436409,20.2800771 C40.6436409,20.0036368 40.5589262,19.8205552 40.5589262,19.8205552 Z M37.275387,18.1137407 C36.1099743,19.0525211 35.0437429,19.6947352 33.5068891,19.6947352 C31.8208073,19.6947352 30.9529384,18.7807553 30.9529384,17.3233734 C30.9529384,15.79172 32.1927697,14.9025405 34.6966736,14.9025405 L37.275387,14.9025405 L37.275387,18.1137407 Z" id="Shape"></path>
                    <text id="WORKSHOP" font-family="Lato-Black, Lato" font-size="18" font-weight="700" letter-spacing="3.0999999">
                        <tspan x="44.3562861" y="21">WORKSHOP</tspan>
                    </text>
                </g>
            </g>
        </g>
    </g>
</svg>