<?xml version="1.0" encoding="utf-8"?>
<!-- Generator: Adobe Illustrator 20.1.0, SVG Export Plug-In . SVG Version: 6.00 Build 0)  -->
<svg version="1.1" id="Capa_1" xmlns="http://www.w3.org/2000/svg" xmlns:xlink="http://www.w3.org/1999/xlink" x="0px" y="0px"
	 viewBox="0 0 372 49" style="enable-background:new 0 0 372 49;" xml:space="preserve">
<path id="WORKSHOP" d="M95.7,15.9h5.5c0.6,0,1,0.1,1.4,0.4c0.4,0.3,0.6,0.6,0.7,1l3.9,14.6c0.1,0.5,0.3,1,0.4,1.5s0.2,1.1,0.3,1.7
	c0.1-0.6,0.3-1.2,0.4-1.7c0.2-0.5,0.3-1,0.4-1.5l4.6-14.6c0.1-0.4,0.4-0.7,0.7-1c0.4-0.3,0.8-0.4,1.4-0.4h1.9c0.6,0,1,0.1,1.4,0.4
	s0.6,0.6,0.8,1l4.5,14.6c0.1,0.4,0.3,0.9,0.4,1.4c0.2,0.5,0.3,1,0.4,1.6c0.1-0.6,0.2-1.1,0.3-1.6c0.1-0.5,0.2-1,0.3-1.4l3.9-14.6
	c0.1-0.4,0.3-0.7,0.7-1c0.4-0.3,0.8-0.4,1.4-0.4h5.1l-8.7,27.9H122l-5.3-17.3c-0.1-0.3-0.2-0.6-0.3-0.9s-0.2-0.7-0.3-1
	c-0.1,0.4-0.2,0.7-0.3,1s-0.2,0.6-0.3,0.9l-5.4,17.3h-5.9L95.7,15.9z M173.5,29.8c0,2-0.4,3.9-1.1,5.6c-0.7,1.7-1.7,3.2-3,4.5
	c-1.3,1.3-2.8,2.3-4.6,3c-1.8,0.7-3.8,1.1-6,1.1s-4.2-0.4-6-1.1c-1.8-0.7-3.3-1.7-4.6-3c-1.3-1.3-2.3-2.8-3-4.5
	c-0.7-1.7-1.1-3.6-1.1-5.6s0.4-3.9,1.1-5.6c0.7-1.7,1.7-3.2,3-4.5s2.8-2.3,4.6-3c1.8-0.7,3.8-1.1,6-1.1s4.2,0.4,6,1.1
	c1.8,0.7,3.3,1.7,4.6,3c1.3,1.3,2.3,2.8,3,4.5S173.5,27.8,173.5,29.8z M166.8,29.8c0-1.4-0.2-2.6-0.5-3.7s-0.9-2-1.6-2.8
	s-1.5-1.4-2.5-1.8c-1-0.4-2.1-0.6-3.3-0.6c-1.3,0-2.4,0.2-3.4,0.6c-1,0.4-1.8,1-2.5,1.8s-1.2,1.7-1.6,2.8s-0.5,2.3-0.5,3.7
	c0,1.4,0.2,2.6,0.5,3.7s0.9,2,1.6,2.8s1.5,1.4,2.5,1.8c1,0.4,2.1,0.6,3.4,0.6c1.2,0,2.4-0.2,3.3-0.6c1-0.4,1.8-1,2.5-1.8
	s1.2-1.7,1.6-2.8S166.8,31.2,166.8,29.8z M189.8,33.5v10.3h-6.5V15.9h9.1c2,0,3.8,0.2,5.2,0.6c1.4,0.4,2.6,1,3.5,1.7
	c0.9,0.7,1.6,1.6,2,2.6c0.4,1,0.6,2.1,0.6,3.3c0,0.9-0.1,1.8-0.4,2.6c-0.2,0.8-0.6,1.5-1.1,2.2c-0.5,0.7-1.1,1.3-1.8,1.8
	c-0.7,0.5-1.5,1-2.4,1.3c0.4,0.2,0.8,0.5,1.2,0.8c0.4,0.3,0.7,0.7,1,1.2l6,9.7h-5.9c-1.1,0-1.9-0.4-2.4-1.2l-4.7-8.1
	c-0.2-0.4-0.4-0.6-0.7-0.8s-0.7-0.2-1.2-0.2H189.8z M189.8,29h2.6c0.9,0,1.6-0.1,2.3-0.3c0.6-0.2,1.1-0.5,1.5-0.9
	c0.4-0.4,0.7-0.9,0.9-1.4c0.2-0.5,0.3-1.1,0.3-1.7c0-1.2-0.4-2.2-1.2-2.9s-2-1-3.7-1h-2.6V29z M222,27.2h1c1,0,1.7-0.3,2.1-0.9
	l6.3-9.1c0.3-0.5,0.7-0.8,1.2-1c0.4-0.2,1-0.3,1.6-0.3h5.7l-8.3,11.3c-0.3,0.4-0.6,0.7-0.9,1c-0.3,0.3-0.6,0.5-1,0.7
	c0.5,0.2,0.9,0.4,1.3,0.7c0.4,0.3,0.8,0.7,1.1,1.3l8.5,13h-5.8c-0.4,0-0.7,0-1-0.1c-0.3-0.1-0.5-0.1-0.7-0.2
	c-0.2-0.1-0.4-0.2-0.5-0.4c-0.1-0.1-0.3-0.3-0.4-0.5l-6.4-9.7c-0.2-0.4-0.5-0.6-0.9-0.8c-0.4-0.1-0.8-0.2-1.4-0.2H222v11.9h-6.5
	V15.9h6.5V27.2z M265.4,21.5c-0.2,0.3-0.4,0.5-0.6,0.7c-0.2,0.2-0.5,0.2-0.8,0.2c-0.3,0-0.6-0.1-1-0.3c-0.3-0.2-0.7-0.4-1.2-0.6
	c-0.4-0.2-0.9-0.4-1.5-0.6c-0.6-0.2-1.2-0.3-1.9-0.3c-1.2,0-2.1,0.3-2.7,0.8c-0.6,0.5-0.9,1.2-0.9,2.1c0,0.6,0.2,1,0.5,1.4
	s0.8,0.7,1.4,1c0.6,0.3,1.3,0.5,2,0.7c0.8,0.2,1.5,0.5,2.3,0.7c0.8,0.3,1.6,0.6,2.3,1c0.8,0.4,1.4,0.8,2,1.4
	c0.6,0.6,1.1,1.3,1.4,2.1c0.4,0.8,0.5,1.8,0.5,3c0,1.3-0.2,2.5-0.7,3.6s-1.1,2.1-2,2.9c-0.9,0.8-1.9,1.5-3.2,2
	c-1.3,0.5-2.7,0.7-4.3,0.7c-0.9,0-1.8-0.1-2.7-0.3c-0.9-0.2-1.8-0.4-2.6-0.8s-1.6-0.7-2.4-1.2c-0.7-0.4-1.4-0.9-1.9-1.5l1.9-3
	c0.1-0.2,0.3-0.4,0.6-0.6c0.3-0.1,0.5-0.2,0.8-0.2c0.4,0,0.8,0.1,1.2,0.4s0.8,0.5,1.3,0.8c0.5,0.3,1.1,0.6,1.7,0.8
	c0.6,0.2,1.4,0.4,2.3,0.4c1.2,0,2.1-0.3,2.8-0.8c0.7-0.5,1-1.3,1-2.5c0-0.7-0.2-1.2-0.5-1.6c-0.4-0.4-0.8-0.7-1.4-1s-1.3-0.5-2-0.7
	c-0.7-0.2-1.5-0.4-2.3-0.7c-0.8-0.2-1.5-0.6-2.3-0.9c-0.7-0.4-1.4-0.8-2-1.4c-0.6-0.6-1.1-1.3-1.4-2.2c-0.4-0.9-0.5-2-0.5-3.3
	c0-1,0.2-2.1,0.6-3.1c0.4-1,1-1.9,1.9-2.7s1.8-1.4,3-1.9s2.6-0.7,4.1-0.7c0.9,0,1.7,0.1,2.5,0.2s1.6,0.3,2.3,0.6
	c0.7,0.3,1.4,0.6,2.1,0.9c0.6,0.4,1.2,0.8,1.7,1.2L265.4,21.5z M301.8,43.8h-6.6V32h-11.4v11.8h-6.6V15.9h6.6v11.7h11.4V15.9h6.6
	V43.8z M340.8,29.8c0,2-0.4,3.9-1.1,5.6c-0.7,1.7-1.7,3.2-3,4.5c-1.3,1.3-2.8,2.3-4.6,3c-1.8,0.7-3.8,1.1-6,1.1
	c-2.2,0-4.2-0.4-6-1.1c-1.8-0.7-3.3-1.7-4.6-3c-1.3-1.3-2.3-2.8-3-4.5c-0.7-1.7-1.1-3.6-1.1-5.6s0.4-3.9,1.1-5.6s1.7-3.2,3-4.5
	s2.8-2.3,4.6-3c1.8-0.7,3.8-1.1,6-1.1c2.2,0,4.2,0.4,6,1.1c1.8,0.7,3.3,1.7,4.6,3c1.3,1.3,2.3,2.8,3,4.5S340.8,27.8,340.8,29.8z
	 M334.1,29.8c0-1.4-0.2-2.6-0.5-3.7c-0.4-1.1-0.9-2-1.6-2.8s-1.5-1.4-2.5-1.8c-1-0.4-2.1-0.6-3.3-0.6c-1.3,0-2.4,0.2-3.4,0.6
	s-1.8,1-2.5,1.8c-0.7,0.8-1.2,1.7-1.6,2.8c-0.4,1.1-0.5,2.3-0.5,3.7c0,1.4,0.2,2.6,0.5,3.7c0.4,1.1,0.9,2,1.6,2.8
	c0.7,0.8,1.5,1.4,2.5,1.8c1,0.4,2.1,0.6,3.4,0.6c1.2,0,2.4-0.2,3.3-0.6c1-0.4,1.8-1,2.5-1.8s1.2-1.7,1.6-2.8
	C333.9,32.5,334.1,31.2,334.1,29.8z M357.1,34.5v9.3h-6.5V15.9h9.9c2,0,3.7,0.2,5.1,0.7c1.4,0.5,2.6,1.1,3.5,1.9s1.6,1.8,2,2.9
	c0.4,1.1,0.7,2.3,0.7,3.6c0,1.4-0.2,2.7-0.7,3.8s-1.1,2.2-2.1,3c-0.9,0.8-2.1,1.5-3.5,1.9s-3.1,0.7-5,0.7H357.1z M357.1,29.6h3.4
	c1.7,0,2.9-0.4,3.7-1.2c0.7-0.8,1.1-1.9,1.1-3.4c0-0.6-0.1-1.2-0.3-1.7c-0.2-0.5-0.5-1-0.9-1.4c-0.4-0.4-0.9-0.7-1.5-0.9
	s-1.3-0.3-2.1-0.3h-3.4V29.6z"/>
<g id="Layer_1">
	<path d="M9.6,15.4v-5.1c0-5.8,0.8-6.8,2.5-6.8h2.2c0,0,0.3-0.5,0.3-1.5s-0.3-1.4-0.3-1.4l-0.1,0c-0.3,0-1.4-0.1-2.1-0.1
		c-2.3,0-3.8,0.8-4.7,2.4C6.5,4.3,6.2,6.5,6.2,10v5.7C6.2,19,5.3,23,1.3,23H1.1c-0.3,0.8-0.3,1.8,0,2.6h0.2c4,0,4.9,4,4.9,7.3v5.9
		c0,6.2,0.9,9.6,5.9,9.6c0.6,0,1.5-0.1,2.1-0.1l0.1,0c0.2-0.5,0.3-1,0.3-1.5c0-0.5-0.1-1-0.3-1.4h-2.2c-1.7,0-2.5-1-2.5-6.8v-5.3
		c0-5.1-1.4-8-4.3-8.9C8.2,23.4,9.6,20.4,9.6,15.4z"/>
	<path d="M24.6,10.9c1.4,0,2.6-1.2,2.6-2.6c0-1.4-1.2-2.6-2.6-2.6c-1.4,0-2.6,1.2-2.6,2.6C22,9.8,23.2,10.9,24.6,10.9
		C24.6,10.9,24.6,10.9,24.6,10.9z"/>
	<path d="M25.3,17l-6.9,0c-0.2,0.3-0.2,0.7-0.3,1c0,0.4,0.1,0.8,0.3,1.1l4.8,0.5v23.7c0.6,0.2,1.1,0.3,1.7,0.2
		c0.6,0,1.1-0.1,1.6-0.2l0-25C26.6,17.5,26,17,25.3,17z"/>
	<path d="M60.8,5.2c0-0.3,0-0.7-0.2-1H55l0,0h0c-0.7,0-1.3,0.6-1.3,1.3l0,0v11.8c-2.2-0.5-4.4-0.7-6.6-0.7
		c-9.2,0-13.1,6.7-13.1,14.3c0,7,3,12.9,10,12.9c4.5,0,7.2-1.8,10.1-4.9l0.4,4.4c0,0,0.3,0.3,1.2,0.3c1,0,1.4-0.3,1.4-0.3V6.8
		l3.7-0.6C60.8,5.9,60.8,5.6,60.8,5.2z M53.7,35.7c-3.2,3.8-5.9,5.5-9.2,5.5c-5.3,0-6.9-5.4-6.9-10.3c0-7.2,3-11.6,9.2-11.6
		c2.4,0,4.7,0.4,6.9,1.2L53.7,35.7z"/>
	<path d="M87.7,41.4l-3.6-0.7V25.1c0-4.3-2.1-8.7-9.4-8.7c-3,0-6.1,0.5-8.9,1.5c-0.6,0.2-1,0.7-1,1.2l0,0v5.4c0.6,0.3,1.3,0.3,2,0
		l0.7-4.2c2.1-0.7,4.3-1.1,6.5-1.1c5,0,6.8,2.3,6.8,7.1v2h-5.5c-6.5,0-11.5,2.6-11.5,8c0,4.8,3.1,7.6,8.7,7.6c3.3,0,5.7-0.9,8.6-3.4
		l0.2,1.7c0.1,0.7,0.6,1.1,1.3,1.1l0,0h5c0.1-0.3,0.2-0.6,0.2-1C87.9,42,87.9,41.7,87.7,41.4z M80.9,37.8c-2.4,2-4.7,3.3-7.9,3.3
		c-3.5,0-5.4-1.9-5.4-5c0-3.2,2.6-5.1,7.9-5.1h5.4L80.9,37.8z"/>
</g>
</svg>
