<?xml version="1.0" encoding="UTF-8" standalone="no"?>
<svg width="85px" height="48px" viewBox="0 0 85 48" version="1.1" xmlns="http://www.w3.org/2000/svg" xmlns:xlink="http://www.w3.org/1999/xlink">
    <!-- Generator: Sketch 47.1 (45422) - http://www.bohemiancoding.com/sketch -->
    <title>Group 8</title>
    <desc>Created with Sketch.</desc>
    <defs></defs>
    <g id="Symbols" stroke="none" stroke-width="1" fill="none" fill-rule="evenodd">
        <g id="menu" transform="translate(-73.000000, -24.000000)" fill="#FF4D3D">
            <g id="Group-8" transform="translate(73.000000, 24.000000)">
                <g id="Group-6">
                    <path d="M22.2476792,13.1822485 C23.4461015,13.1822485 24.3878315,12.2374972 24.3878315,11.0354558 C24.3878315,9.83318876 23.4461015,8.88888889 22.2476792,8.88888889 C21.0494819,8.88888889 20.1075269,9.83341446 20.1075269,11.0354558 C20.1077519,12.2374972 21.0494819,13.1822485 22.2476792,13.1822485 Z" id="Shape"></path>
                    <g id="Group-2">
                        <path d="M8.69539565,14.9006104 L8.69539565,9.83454999 C8.69539565,4.04227527 9.50349268,3.02285018 11.2011755,3.02285018 L13.358455,3.02285018 C13.358455,3.02285018 13.6270964,2.57431404 13.6270964,1.54371642 C13.6270964,0.513391304 13.358455,0.120445306 13.358455,0.120445306 L13.2196525,0.109000277 C12.9135263,0.0833852119 11.8530857,0 11.0927954,0 C8.77824258,0 7.28210865,0.774991969 6.38437397,2.4388812 C5.59800728,3.8964874 5.24733391,6.09338798 5.24733391,9.5628668 L5.24733391,15.2270662 C5.24733391,18.5330446 4.40799952,22.4742221 0.409888543,22.4742221 L0.258862678,22.4742221 C0.258862678,22.4742221 0,22.9391083 0,23.7677829 C0,24.59673 0.258862678,25.0616162 0.258862678,25.0616162 L0.410160172,25.0616162 C4.40827115,25.0616162 5.24760554,29.0027937 5.24760554,32.3087721 L5.24760554,38.194242 C5.24760554,44.3963578 6.17902225,47.7571088 11.0930671,47.7571088 C11.7047762,47.7571088 12.5927322,47.7007012 13.2204674,47.6478361 L13.3587267,47.6361185 C13.3587267,47.6361185 13.627368,47.0815796 13.627368,46.1496273 C13.627368,45.2174024 13.3587267,44.7339862 13.3587267,44.7339862 L11.2014471,44.7339862 C9.50376431,44.7339862 8.69566728,43.7148336 8.69566728,37.9225588 L8.69566728,32.6360454 C8.69566728,27.6043201 7.27314488,24.6256151 4.46531329,23.7683279 C7.27260163,22.9104957 8.69539565,19.9312456 8.69539565,14.9006104 Z" id="Shape"></path>
                        <path d="M23.5284141,16.8888889 L16.7007411,16.8932489 C16.7007411,16.8932489 16.461979,17.2962774 16.4519288,17.907224 C16.4413352,18.517898 16.7007411,18.9980442 16.7007411,18.9980442 L21.5064059,19.485003 L21.5064059,43.1236205 C21.5064059,43.1236205 22.1091512,43.3650562 23.2019157,43.3650562 C24.2944086,43.3650562 24.8134921,43.1236205 24.8134921,43.1236205 L24.8151218,18.1797247 C24.8153935,17.4665904 24.2387246,16.8888889 23.5284141,16.8888889 Z" id="Shape"></path>
                        <path d="M57.7609415,4.51067048 C57.7609415,3.82751125 57.6033966,3.55555556 57.6033966,3.55555556 L51.9478039,3.55555556 L51.9513351,3.56127807 C51.9502486,3.56127807 51.9488904,3.56100557 51.9475323,3.56100557 C51.2372218,3.56100557 50.6610961,4.13870704 50.6605529,4.85129635 L50.659738,4.85211385 L50.659738,16.6244163 C48.3859295,16.1581676 46.3193741,15.9502495 44.0969036,15.9502495 C35.0030278,15.9502495 31.0752688,22.637689 31.0752688,30.2061233 C31.0752688,37.1527109 34.072426,43.0103858 40.9967989,43.0103858 C45.4406535,43.0103858 48.1792196,41.1966212 51.0215481,38.0857533 L51.3830867,42.4400418 C51.3830867,42.4400418 51.729414,42.7182651 52.6089495,42.7182651 C53.5561207,42.7182651 53.9668241,42.4400418 53.9668241,42.4400418 L53.9668241,6.05683941 L57.6036682,5.46987292 C57.6033966,5.47014542 57.7609415,5.19410222 57.7609415,4.51067048 Z M50.659738,34.8198325 C47.5077521,38.6045946 44.8199807,40.2633063 41.5134378,40.2633063 C36.2946249,40.2633063 34.6406744,34.8721526 34.6406744,30.0507979 C34.6406744,22.8971097 37.6378316,18.5422761 43.7872462,18.5422761 C46.3191025,18.5422761 48.6958585,19.0087973 50.659738,19.7344667 L50.659738,34.8198325 Z" id="Shape"></path>
                        <path d="M84.0124543,40.8880332 L80.4758415,40.208689 L80.4758415,24.7085771 C80.4758415,20.4063362 78.4090145,16 71.1741693,16 C67.8733306,16 64.6743529,16.6518217 62.3087337,17.5104713 C61.7657469,17.6608917 61.3642788,18.154663 61.3634639,18.747352 L61.3577597,18.750077 L61.3588462,24.1213381 C61.3588462,24.1213381 61.752437,24.3246236 62.3358967,24.3246236 C62.918813,24.3246236 63.3132187,24.1194306 63.3132187,24.1194306 L63.9811551,19.9629776 C66.0501551,19.2664658 68.3432492,18.8514472 70.4510922,18.8514472 C75.4631952,18.8514472 77.1687553,21.1325505 77.1687553,25.9015852 L77.1687553,27.8714927 L71.6913514,27.8714927 C65.2322794,27.8714927 60.3225806,30.4114716 60.3225806,35.8028978 C60.3225806,40.6237076 63.4229569,43.3710595 69.0038516,43.3710595 C72.311481,43.3710595 74.6879653,42.4380172 77.5305655,40.001861 L77.741893,41.6725627 C77.8285428,42.3352844 78.3756041,42.8028956 79.0218101,42.8001706 L79.022625,42.8007156 L80.4758415,42.8007156 L84.0124543,42.8004431 C84.0124543,42.8004431 84.1890134,42.4314772 84.1890134,41.8524132 C84.1890134,41.2722592 84.0124543,40.8880332 84.0124543,40.8880332 Z M77.1690269,37.3060116 C74.7401181,39.2761916 72.5179192,40.6239801 69.3148671,40.6239801 C65.8007994,40.6239801 63.9920202,38.7058477 63.9920202,35.6472999 C63.9920202,32.4328818 66.5760293,30.566797 71.7945705,30.566797 L77.1690269,30.566797 L77.1690269,37.3060116 Z" id="Shape"></path>
                    </g>
                </g>
            </g>
        </g>
    </g>
</svg>
