<?xml version="1.0" encoding="utf-8"?>
<!-- Generator: Adobe Illustrator 20.1.0, SVG Export Plug-In . SVG Version: 6.00 Build 0)  -->
<svg version="1.1" id="Capa_1" xmlns="http://www.w3.org/2000/svg" xmlns:xlink="http://www.w3.org/1999/xlink" x="0px" y="0px"
	 viewBox="0 0 790 709.333" style="enable-background:new 0 0 790 709.333;" xml:space="preserve">
<style type="text/css">
	.st0{fill:#FF4D3D;}
	.st1{fill:#FFFFFF;}
</style>
<g id="Layer_2">
	<rect x="0.258" y="0.223" class="st0" width="789.966" height="708.661"/>
</g>
<g id="Layer_1">
	<path class="st1" d="M214.098,307.591v-26.499c0-30.297,4.24-35.634,13.149-35.634h11.32c0,0,1.41-2.346,1.41-7.737
		c0-5.391-1.41-7.445-1.41-7.445l-0.728-0.058c-1.606-0.143-7.171-0.57-11.161-0.57c-12.144,0-19.998,4.054-24.707,12.757
		c-4.134,7.624-5.965,19.115-5.965,37.263v29.629c0,17.292-4.404,37.915-25.386,37.915h-0.791c-1.813,4.329-1.813,9.204,0,13.532
		h0.791c20.983,0,25.386,20.615,25.386,37.907v30.788c0,32.441,4.886,50.02,30.672,50.02c3.21,0,7.869-0.295,11.163-0.57
		l0.726-0.061c1.003-2.466,1.483-5.114,1.41-7.775c0.115-2.547-0.367-5.085-1.41-7.412h-11.32c-8.908,0-13.149-5.331-13.149-35.634
		v-27.652c0-26.319-7.465-41.906-22.197-46.383C206.632,349.486,214.098,333.903,214.098,307.591z"/>
	<path class="st1" d="M292.228,284.45c7.488-0.001,13.557-6.072,13.557-13.559c-0.001-7.488-6.072-13.557-13.559-13.557
		c-7.487,0.001-13.557,6.071-13.557,13.558c-0.073,7.415,5.879,13.485,13.294,13.558
		C292.051,284.451,292.139,284.451,292.228,284.45z"/>
	<path class="st1" d="M295.788,315.88l-35.828,0.023c-0.851,1.639-1.299,3.457-1.306,5.304c-0.013,1.976,0.434,3.928,1.306,5.701
		l25.217,2.547v123.646c2.871,0.931,5.881,1.358,8.897,1.263c2.874,0.138,5.748-0.291,8.457-1.263l0.009-130.473
		C302.538,318.901,299.516,315.88,295.788,315.88z"/>
	<path class="st1" d="M480.739,254.71c0.121-1.705-0.162-3.414-0.827-4.989h-29.677l0.019,0.031h-0.02
		c-3.728,0.001-6.75,3.021-6.753,6.749l0,0v61.576c-11.326-2.366-22.868-3.548-34.438-3.526c-47.72,0-68.33,34.98-68.33,74.568
		c0,36.335,15.727,66.975,52.063,66.975c23.319,0,37.689-9.487,52.604-25.759l1.897,22.774c0,0,1.817,1.457,6.433,1.457
		c4.97,0,7.127-1.457,7.127-1.457v-190.31l19.084-3.07C480.58,258.142,480.861,256.424,480.739,254.71z M443.475,413.248
		c-16.534,19.797-30.645,28.473-47.993,28.473c-27.387,0-36.062-28.199-36.062-53.418c0-37.419,15.727-60.197,47.996-60.197
		c12.292-0.035,24.495,2.075,36.062,6.236L443.475,413.248z"/>
	<path class="st1" d="M621.087,443.102l-18.558-3.553v-81.076c0-22.504-10.846-45.552-48.81-45.552
		c-15.839,0.016-31.564,2.687-46.521,7.901c-2.92,0.796-4.95,3.442-4.962,6.468l-0.028,0.014V355.4
		c3.271,1.421,6.986,1.417,10.254-0.01l3.505-21.741c10.94-3.713,22.398-5.675,33.951-5.814c26.301,0,35.251,11.932,35.251,36.877
		v10.304h-28.734c-33.894,0-59.656,13.286-59.656,41.488c0,25.216,16.269,39.587,45.554,39.587c17.357,0,29.827-4.88,44.743-17.623
		l1.109,8.739c0.408,3.391,3.301,5.931,6.716,5.898l0,0h26.182c0.645-1.573,0.961-3.261,0.927-4.96
		C622.038,446.419,621.724,444.706,621.087,443.102z M585.176,424.366c-12.746,10.307-24.406,17.355-41.214,17.355
		c-18.438,0-27.937-10.033-27.937-26.031c0-16.819,13.559-26.574,40.943-26.574h28.202L585.176,424.366z"/>
</g>
</svg>
