<?xml version="1.0" encoding="UTF-8" standalone="no"?>
<svg width="472px" height="264px" viewBox="0 0 472 264" version="1.1" xmlns="http://www.w3.org/2000/svg" xmlns:xlink="http://www.w3.org/1999/xlink">
    <!-- Generator: Sketch 47.1 (45422) - http://www.bohemiancoding.com/sketch -->
    <title>Group 9</title>
    <desc>Created with Sketch.</desc>
    <defs></defs>
    <g id="Page-1" stroke="none" stroke-width="1" fill="none" fill-rule="evenodd">
        <g id="Group-9">
            <rect id="Rectangle-10-Copy-4" fill="#44C1E3" x="0" y="0" width="472" height="264"></rect>
            <g id="Group-10" transform="translate(175.000000, 55.000000)" fill-rule="nonzero">
                <g id="Group-13">
                    <g id="cube" transform="translate(0.423035, 0.259032)">
                        <polygon id="Shape" fill="#FFFFFF" points="71.3617323 22.259679 47.1381438 36.7817422 71.3617323 51.0663224 95.5856804 36.7817422"></polygon>
                        <g id="Group" transform="translate(47.138144, 36.663001)" fill="#D3D7DA">
                            <polygon id="Shape" points="24.6992786 14.2311399 24.6992786 42.9445638 49.2324823 28.6944145 49.2324823 0.00438679849"></polygon>
                            <polygon id="Shape" points="0.166439151 0.00438679849 0.166439151 28.6944145 24.6992786 42.9445638 24.6992786 14.2311399"></polygon>
                        </g>
                        <path d="M99.27779,35.0602032 C99.27779,35.0602032 98.5936639,34.3776913 98.3813111,34.1658396 L98.3813111,34.1658396 L98.3813111,34.1658396 L98.3813111,34.1658396 L73.8034881,19.9761431 C73.119362,19.5291433 72.223248,19.5291433 71.5391219,19.9761431 L46.960934,34.1658396 C46.7252297,34.1658396 46.2768079,34.8483515 46.0644551,35.0602032 C46.0644551,35.0602032 45.8287509,35.9545669 45.8287509,36.189715 L45.8287509,64.7572992 C45.8287509,65.6516628 46.2768079,66.3338108 46.960934,66.7811746 L71.5391219,80.9472106 L71.5391219,80.9472106 L71.5391219,80.9472106 C71.5391219,80.9472106 72.4356008,81.1823587 72.671305,81.1823587 C72.9070092,81.1823587 73.5677838,80.9472106 73.8034881,80.9472106 L73.8034881,80.9472106 L73.8034881,80.9472106 L98.381676,66.7811746 C99.0658021,66.3341748 99.5138591,65.6516628 99.5138591,64.7572992 L99.5138591,36.189715 C99.5138591,35.9542029 99.27779,35.0602032 99.27779,35.0602032 Z M70.4069388,75.1110964 L50.3341317,63.4159357 L50.3341317,40.0252501 L70.4069388,51.7204109 L70.4069388,75.1110964 Z M72.671305,47.8848758 L52.3624288,36.189715 L72.4352359,24.4945542 L92.508043,36.189715 L72.671305,47.8848758 Z M95.0084783,63.4159357 L74.9356712,75.1110964 L74.9356712,51.7204109 L95.0084783,40.0252501 L95.0084783,63.4159357 Z" id="Shape" fill="#193651"></path>
                        <g id="Group" transform="translate(1.309393, 30.116036)" fill="#FFFFFF">
                            <path d="M139.170642,6.53705484 C139.170642,3.13913902 136.473048,0.168719533 133.118293,0.168719533 C129.7639,0.168719533 127.065944,2.6638572 126.620337,6.08566576 L121.693981,38.1890598 C121.318771,36.121786 120.051983,34.2680766 118.081223,33.3414057 C114.726831,31.7494138 110.668465,33.1039486 108.885673,36.5257572 L100.370509,53.8009465 C99.924902,54.4901602 99.4789318,55.3929384 98.7989089,55.8446951 L87.5857885,64.0189543 C86.9054027,64.708168 86.2486036,65.3734891 85.8029963,66.30016 L78.8594327,80.6052974 L107.126831,94.9104347 L110.270394,88.5420994 L136.285806,61.9516805 C138.537793,59.6704748 139.640199,56.723948 139.640199,53.7774213 L139.170642,6.53705484 Z" id="Shape"></path>
                            <path d="M52.1400483,64.0189543 L40.9269279,55.8446951 C40.2465421,55.393306 39.8009348,54.4901602 39.3553275,53.8009465 L30.8398006,36.5253896 C29.0570084,33.1274738 24.9986434,31.7490462 21.6442508,33.3410381 C19.7206641,34.2441839 18.4538765,36.0736329 18.0550798,38.0934888 L13.3163289,6.06177302 C12.8707216,2.6638572 10.1727652,0.144826789 6.81837263,0.144826789 C3.46398005,0.144826789 0.766023663,3.1148787 0.766023663,6.53705484 L0.32041634,53.8009465 C0.32041634,56.7474732 1.44640944,59.7178927 3.67480892,61.9752057 L29.479029,88.5656246 L32.6225928,94.9339599 L60.8899908,80.3909978 L53.9464272,66.2997924 C53.4772332,65.3734891 52.7968474,64.708168 52.1400483,64.0189543 Z" id="Shape"></path>
                        </g>
                        <polygon id="Shape" fill="#2EA2DB" points="76.7299923 107.370216 72.0166086 116.612034 67.3032248 107.370216 31.4254292 125.406003 39.4923017 141.414431 104.541278 141.414431 112.607788 125.406003"></polygon>
                        <g id="Group" fill="#193651">
                            <path d="M139.856618,92.8301396 C142.325551,90.3486739 143.900823,86.7328552 143.900823,83.1170366 L143.454174,35.8756036 C143.454174,31.125432 139.621654,27.2968536 134.918751,27.2968536 C130.639219,27.2968536 126.830341,30.6761507 126.148365,34.9774066 L122.315845,61.1859687 C121.869197,60.9498127 114.674083,55.7503598 109.054241,64.5652658 L100.518818,81.746162 C100.283855,82.1950778 99.8368427,82.644359 99.6251575,83.0932747 L88.5975234,91.2227435 L88.3625601,91.4588995 C87.4688995,92.3570965 86.7872877,93.2786897 86.1053123,94.3892809 L80.0388223,106.37109 L75.5479684,104.102384 L71.9504115,111.806699 L68.3528545,104.338905 L63.8620007,106.607611 L57.7955107,94.6258024 C57.3488622,93.4914494 56.4552016,92.5932524 55.5382628,91.695421 L44.2989435,83.3294307 C43.8522951,82.880515 43.6169681,82.4312337 43.4052829,81.982318 L34.8698599,64.8014217 C29.6970306,56.4354315 21.8199412,60.7366874 21.608256,61.4221246 L17.5407725,35.1901664 C16.8587971,30.8889104 13.2612401,27.5096133 8.77038627,27.5096133 C4.04420541,27.5096133 0.446648461,31.361588 0.446648461,36.0883634 L0,82.8808806 C0,86.4966992 1.3403091,90.1125179 4.04420541,92.5939836 L29.9087158,118.802546 L31.9310003,122.65452 L28.5687704,124.47431 L38.2328173,143.687757 L106.350709,143.687757 L116.014755,124.47431 L112.652526,122.65452 L114.67481,118.802546 L139.856618,92.8301396 Z M7.19511389,89.6632366 C5.40815633,87.8672082 4.49121759,85.3619807 4.49121759,83.1170366 L4.93786605,36.1117596 C4.93786605,33.8430537 6.74846543,32.0470252 8.98207146,32.0470252 C11.004356,32.0470252 13.0262769,33.6302939 13.2616039,35.8989999 L17.7524577,67.5431708 C17.5174945,69.362961 17.7524577,71.3951454 18.6461184,72.9787797 L25.6059053,86.992773 C26.0525537,87.6782103 26.0525537,88.5760417 25.8408685,89.261479 C25.746665,89.5451586 25.6059053,89.8288383 25.44114,90.0649942 C24.9708497,90.7504315 24.8766462,91.6011049 25.2530966,92.3337002 L25.3236584,92.47554 C26.0289119,93.9169689 28.0275547,94.1534904 28.991777,92.8772976 C29.532629,92.1918604 29.9087158,91.412107 30.1204009,90.6085917 C30.8023764,88.7888015 30.5670494,86.7566171 29.6737525,84.9602231 L22.7139656,71.1823857 L22.2673171,67.5665671 C22.5022804,66.2194544 23.3959411,65.2978611 24.524565,64.6361857 C26.7818128,63.5018327 29.462431,64.6361857 30.5910549,66.9048916 L39.1264779,84.0857879 C39.5731264,85.2201409 40.2551019,86.1183379 41.1487625,86.8034096 L52.6230451,95.1693999 C53.0696935,95.6183156 53.5167057,96.0675968 53.751669,96.7526685 L59.818159,108.734477 L35.7406062,120.858126 L33.7183216,116.793392 L7.19511389,89.6632366 Z M103.199436,139.386501 L40.7013866,139.386501 L34.3999334,126.743016 L66.3309337,110.460317 L71.9507752,121.756689 L77.5706167,110.460317 L109.501617,126.50686 L103.199436,139.386501 Z M110.629877,116.10832 L108.160944,120.83473 L84.1070332,108.640161 L90.1735232,96.6583524 C90.4084865,95.9729151 90.8554987,95.5239994 91.3021471,95.0750837 L102.329781,86.945615 L102.564745,86.709459 C103.458405,86.0240217 104.140017,84.9134306 104.587029,83.9918373 L113.09881,66.8347028 C114.227434,64.5659969 116.93133,63.6677999 119.1653,64.5659969 C120.293924,65.2514342 121.187585,66.1492656 121.422548,67.4963783 L120.9759,71.1121969 L114.016113,84.8900343 C112.722724,87.4658161 113.05189,90.4908793 114.650805,92.6886653 C115.615027,94.035778 117.66059,93.8701764 118.389485,92.3815894 L118.436405,92.2635114 C118.812492,91.5071543 118.69501,90.6093228 118.201442,89.9238856 C117.590028,89.0732122 117.425626,87.8913356 118.060318,86.9225843 L125.020105,72.9085909 C125.913766,71.1125625 126.148729,69.2927723 125.913766,67.4967438 L130.40462,35.6401788 C130.639583,33.3714728 132.426904,31.7882041 134.684152,31.7882041 C136.9414,31.7882041 138.516672,33.6079944 138.728357,35.8529385 L139.410333,83.0943714 C139.410333,85.5758371 138.516672,87.8445431 136.706436,89.6405715 L110.629877,116.10832 Z" id="Shape"></path>
                            <rect id="Rectangle-path" x="51.9407059" y="128.066367" width="4.49085387" height="4.51365008"></rect>
                            <rect id="Rectangle-path" x="69.6931636" y="128.066367" width="4.49085387" height="4.51365008"></rect>
                            <rect id="Rectangle-path" x="87.4692632" y="128.066367" width="4.49085387" height="4.51365008"></rect>
                            <rect id="Rectangle-path" x="69.6931636" y="1.53757287" width="4.49085387" height="13.3289216"></rect>
                            <rect id="Rectangle-path" transform="translate(43.038316, 8.378201) rotate(48.798983) translate(-43.038316, -8.378201) " x="34.2679674" y="6.12138597" width="17.5406976" height="4.51363078"></rect>
                            <rect id="Rectangle-path" transform="translate(100.860416, 8.328792) rotate(131.217188) translate(-100.860416, -8.328792) " x="92.0904135" y="6.07201835" width="17.5400058" height="4.51354638"></rect>
                        </g>
                    </g>
                </g>
            </g>
        </g>
    </g>
</svg>
