<?xml version="1.0" encoding="UTF-8" standalone="no"?>
<svg width="472px" height="264px" viewBox="0 0 472 264" version="1.1" xmlns="http://www.w3.org/2000/svg" xmlns:xlink="http://www.w3.org/1999/xlink">
    <!-- Generator: Sketch 47.1 (45422) - http://www.bohemiancoding.com/sketch -->
    <title>Group 30</title>
    <desc>Created with Sketch.</desc>
    <defs></defs>
    <g id="Page-1" stroke="none" stroke-width="1" fill="none" fill-rule="evenodd">
        <g id="Group-30">
            <rect id="Rectangle-10-Copy-5" fill="#40B894" x="0" y="0" width="472" height="264"></rect>
            <g id="loupe" transform="translate(181.000000, 65.000000)" fill-rule="nonzero">
                <ellipse id="Oval" fill="#F16051" cx="59.2580645" cy="72.1870968" rx="59.2580645" ry="61.4129032"></ellipse>
                <path d="M3.38989553,120.164919 L11.0781933,128.06684 C12.709094,129.69815 15.3353094,129.69815 16.7542388,128.06684 L49.5612903,95.6539848 L35.9853034,81.883871 L3.17825193,114.296727 C1.78029025,115.906735 1.78029025,118.55491 3.38989553,120.164919 Z" id="SVGCleanerId_0" fill="#D3D7DA"></path>
                <ellipse id="Oval" fill="#FFFFFF" cx="84.0387097" cy="48.483871" rx="45.2516129" ry="46.3290323"></ellipse>
                <ellipse id="Oval" fill="#E1E6E9" cx="84.0387097" cy="48.483871" rx="36.6322581" ry="37.7096774"></ellipse>
                <path d="M47.4064516,46.3291567 C67.7290285,21.9074854 100.348391,21.9074854 120.670968,46.3291567 L120.670968,46.3291567 L120.670968,46.3291567 C100.348391,70.7504961 67.7293604,70.7504961 47.4064516,46.3291567 L47.4064516,46.3291567 L47.4064516,46.3291567 Z" id="Shape" fill="#FFFFFF"></path>
                <path d="M64.6451613,46.3290323 C64.6451613,38.7521821 68.9124382,32.4168957 75.0053108,28.9279358 C81.0985119,27.7078924 87.1913846,27.7078924 93.0721085,28.9279358 C99.1653096,32.2026845 103.432258,38.7521821 103.432258,46.3290323 C103.432258,53.9058825 99.1649812,60.2411688 93.0721085,63.7301287 C86.9789074,64.9501721 80.8860348,64.9501721 75.0053108,63.7301287 C68.699961,60.2411688 64.6451613,53.6916713 64.6451613,46.3290323 Z" id="SVGCleanerId_1" fill="#2EA2DB"></path>
                <circle id="Oval" fill="#193651" cx="84.0387097" cy="47.4064516" r="8.61935484"></circle>
                <ellipse id="Oval" fill="#F16051" cx="59.2580645" cy="72.1870968" rx="59.2580645" ry="61.4129032"></ellipse>
                <path d="M3.38989553,120.164919 L11.0781933,128.06684 C12.709094,129.69815 15.3353094,129.69815 16.7542388,128.06684 L49.5612903,95.6539848 L35.9853034,81.883871 L3.17825193,114.296727 C1.78029025,115.906735 1.78029025,118.55491 3.38989553,120.164919 Z" id="SVGCleanerId_0_1_" fill="#D3D7DA"></path>
                <g id="Group" transform="translate(38.787097, 2.154839)" fill="#FFFFFF">
                    <path d="M9.29276719,76.260233 L0.643967501,85.1210334 L7.44240063,92.0861109 L16.0912003,83.4459098 C13.4021784,81.3077661 10.9278123,78.9933474 9.29276719,76.260233 Z" id="Shape"></path>
                    <ellipse id="Oval" cx="45.2863905" cy="46.3275844" rx="45.0511011" ry="46.1554009"></ellipse>
                </g>
                <ellipse id="Oval" fill="#E1E6E9" cx="84.0387097" cy="48.483871" rx="36.6322581" ry="37.7096774"></ellipse>
                <path d="M47.4064516,46.3290323 C67.7290285,70.7505376 100.348391,70.7505376 120.670968,46.3290323 C100.348391,21.9075269 67.7293604,21.9075269 47.4064516,46.3290323 Z" id="Shape" fill="#FFFFFF"></path>
                <path d="M64.6451613,46.3290323 C64.6451613,38.7521821 68.9124382,32.4168957 75.0053108,28.9279358 C81.0985119,27.7078924 87.1913846,27.7078924 93.0721085,28.9279358 C99.1653096,32.2026845 103.432258,38.7521821 103.432258,46.3290323 C103.432258,53.9058825 99.1649812,60.2411688 93.0721085,63.7301287 C86.9789074,64.9501721 80.8860348,64.9501721 75.0053108,63.7301287 C68.699961,60.2411688 64.6451613,53.6916713 64.6451613,46.3290323 Z" id="SVGCleanerId_1_1_" fill="#2EA2DB"></path>
                <g id="Group" fill="#193651">
                    <ellipse id="Oval" cx="84.1239099" cy="47.541357" rx="9.20381006" ry="9.31492259"></ellipse>
                    <rect id="Rectangle-path" transform="translate(33.795340, 98.443125) rotate(-135.000000) translate(-33.795340, -98.443125) " x="31.751338" y="96.3744468" width="4.08800464" height="4.13735687"></rect>
                    <rect id="Rectangle-path" transform="translate(25.207752, 107.195880) rotate(45.000000) translate(-25.207752, -107.195880) " x="23.1637495" y="105.127202" width="4.08800464" height="4.13735687"></rect>
                    <rect id="Rectangle-path" transform="translate(16.622780, 115.945527) rotate(45.004051) translate(-16.622780, -115.945527) " x="14.5784672" y="113.876535" width="4.08862484" height="4.13798455"></rect>
                    <path d="M84.230854,0.100192886 C58.2888105,0.100192886 37.2701663,21.3943646 37.2701663,47.6278111 C37.2701663,58.1557713 40.6519821,67.9039694 46.3882225,75.7890491 L39.5173157,82.7429045 L36.2424439,79.428497 L1.84619199,113.828837 C-0.615176599,116.31992 -0.615176599,120.240846 1.84619199,122.732265 L9.61602473,130.812368 C10.836114,131.852163 12.2700913,132.675487 14.1109857,132.675487 C15.7591822,132.675487 17.1931595,132.047187 18.4132488,130.812368 L53.0025297,96.2173398 L49.3210719,92.4914378 L56.1062248,85.7111606 C63.9402902,91.6466677 73.6791516,95.1778805 84.2311851,95.1778805 C110.173229,95.1778805 131.191873,73.8837088 131.191873,47.6502623 C131.213063,21.3946997 110.172898,0.100192886 84.230854,0.100192886 Z M15.5661532,127.909456 C15.1595671,128.32095 14.5387619,128.537755 14.1321759,128.537755 C13.5113706,128.537755 13.1047846,128.321285 12.6981986,127.909456 L4.92836581,119.829352 C4.11486263,119.006027 4.11486263,117.749763 4.92836581,116.926439 L36.6493611,85.2339878 L47.0944505,96.2170047 L15.5661532,127.909456 Z M46.4739764,89.5885248 L42.5782994,85.6458175 L49.0853315,79.1687997 C50.3054207,80.5550806 51.5897426,81.8766884 52.9594873,83.1115071 L46.4739764,89.5885248 Z M84.230854,90.8447895 C60.6862775,90.8447895 41.5509081,71.4566282 41.5509081,47.6495921 C41.5509081,23.8207749 60.7077987,4.45439477 84.230854,4.45439477 C107.77543,4.45439477 126.9108,23.842556 126.9108,47.6495921 C126.932321,71.4566282 107.77543,90.8447895 84.230854,90.8447895 Z" id="Shape"></path>
                </g>
            </g>
        </g>
    </g>
</svg>
