<?xml version="1.0" encoding="UTF-8" standalone="no"?>
<svg width="472px" height="264px" viewBox="0 0 472 264" version="1.1" xmlns="http://www.w3.org/2000/svg" xmlns:xlink="http://www.w3.org/1999/xlink">
    <!-- Generator: Sketch 47.1 (45422) - http://www.bohemiancoding.com/sketch -->
    <title>Group 31</title>
    <desc>Created with Sketch.</desc>
    <defs></defs>
    <g id="Page-1" stroke="none" stroke-width="1" fill="none" fill-rule="evenodd">
        <g id="Group-31">
            <rect id="Rectangle-10-Copy-6" fill="#FAD047" x="0" y="0" width="472" height="264"></rect>
            <g id="Group-20" transform="translate(165.000000, 61.000000)" fill-rule="nonzero">
                <g id="Group-19">
                    <g id="user" transform="translate(0.161364, 0.288889)">
                        <path d="M100.076114,87.9876763 L95.8083719,87.9876763 L95.8083719,45.1537986 L119.313441,11.2978892 C120.587058,9.3330973 119.961482,6.27212109 118.039823,4.96991636 C116.967358,4.30732915 115.894892,4.10166208 114.621275,4.30732915 C113.347657,4.53561253 112.476344,5.17558343 111.850768,6.27212109 L87.4965056,41.2245681 L48.1501927,41.2245681 L23.7962758,6.50075785 C23.1482344,5.40422019 22.075769,4.74163298 20.8021515,4.53596591 C19.729686,4.10201546 18.6572206,4.30768253 17.6072206,4.96991636 C15.4622898,6.27212109 15.0378658,9.3330973 16.3336031,11.2978892 L39.8162066,44.9481315 L39.8162066,87.7590396 L35.5488103,87.7590396 L35.5488103,46.478973 L12.6914373,13.9252684 C10.1220824,9.76740113 11.1945479,4.10201546 15.2611377,1.47463632 C17.1827967,0.172431591 19.528534,-0.284488548 21.8746169,0.172431591 C24.2206998,0.60638204 26.1420132,2.13722353 27.4380961,4.10166208 L50.2951235,36.8610338 L85.329455,36.8610338 L108.186482,4.10166208 C109.4601,2.13687015 111.381413,0.835018799 113.749962,0.37809866 C116.096045,-0.0558517885 118.442127,0.37809866 120.363441,1.68030339 C124.430031,4.30732915 125.502496,9.9730682 122.932796,14.1305821 L100.075768,46.9129235 L100.075768,87.9876763 L100.076114,87.9876763 Z" id="Shape" fill="#193651"></path>
                        <ellipse id="Oval" fill="#D3D7DA" cx="67.8122449" cy="18.751472" rx="12.7147959" ry="12.9817883"></ellipse>
                        <g id="Group" transform="translate(53.684694, 2.884842)" fill="#193651">
                            <path d="M14.8842016,30.7211512 C6.69344086,30.7211512 0.193618944,23.7214759 0.193618944,15.4182516 C0.193618944,6.88609251 6.91321535,0.115352046 14.8842016,0.115352046 C22.8551878,0.115352046 29.5747842,7.1150274 29.5747842,15.4182516 C29.5751239,23.9500569 23.0749623,30.7211512 14.8842016,30.7211512 Z M14.8842016,4.48386847 C8.99920471,4.48386847 4.38767702,9.51618992 4.38767702,15.4178978 C4.38767702,21.3196057 9.21863951,26.3519271 14.8842016,26.3519271 C20.7691984,26.3519271 25.3807261,21.3196057 25.3807261,15.4178978 C25.3807261,9.51618992 20.7691984,4.48386847 14.8842016,4.48386847 Z" id="Shape"></path>
                            <rect id="Rectangle-path" x="12.7761328" y="47.7854695" width="4.19405807" height="4.36887026"></rect>
                            <rect id="Rectangle-path" x="12.7761328" y="58.5135635" width="4.19405807" height="4.36887026"></rect>
                            <rect id="Rectangle-path" x="12.7761328" y="68.9900769" width="4.19405807" height="4.36887026"></rect>
                        </g>
                        <path d="M36.7316327,138.472409 L36.7316327,130.255453 C36.7316327,120.522001 28.7578297,112.508832 19.0721939,112.508832 L19.0721939,112.508832 C9.38655808,112.508832 1.4127551,120.522001 1.4127551,130.255453 L1.4127551,138.472409 L36.7316327,138.472409 Z" id="Shape" fill="#FDBF5E"></path>
                        <path d="M39.3322007,139.91483 L0,139.91483 L0,129.531289 C0,118.718031 8.81029335,109.62399 19.7785714,109.62399 C30.5219073,109.62399 39.5571429,118.491624 39.5571429,129.531289 L39.5571429,139.91483 L39.3322007,139.91483 Z M4.29267559,135.594215 L35.0169266,135.594215 L35.0169266,129.531638 C35.0169266,121.093721 28.1393281,113.945304 19.5536292,113.945304 C11.1702741,113.945304 4.09033192,120.867665 4.09033192,129.531638 L4.09033192,135.594215 L4.29267559,135.594215 Z" id="Shape" fill="#193651"></path>
                        <path d="M86.1780612,138.472409 L86.1780612,130.255453 C86.1780612,120.522001 78.2042582,112.508832 68.5186224,112.508832 L68.5186224,112.508832 C58.8329867,112.508832 50.8591837,120.522001 50.8591837,130.255453 L50.8591837,138.472409 L86.1780612,138.472409 Z" id="Shape" fill="#F16051"></path>
                        <path d="M89.0035714,139.91483 L49.4464286,139.91483 L49.4464286,129.531289 C49.4464286,118.718031 58.2567219,109.62399 69.225,109.62399 C79.9683359,109.62399 89.0035714,118.491624 89.0035714,129.531289 L89.0035714,139.91483 L89.0035714,139.91483 Z M53.7394518,135.594215 L84.4637028,135.594215 L84.4637028,129.531638 C84.4637028,121.093721 77.5861043,113.945304 68.9781546,113.945304 C60.5947995,113.945304 53.4926065,120.867665 53.4926065,129.531638 L53.4926065,135.594215 L53.7394518,135.594215 Z" id="Shape" fill="#193651"></path>
                        <path d="M135.62449,138.472409 L135.62449,130.255453 C135.62449,120.522001 127.650687,112.508832 117.965051,112.508832 L117.965051,112.508832 C108.279415,112.508832 100.305612,120.522001 100.305612,130.255453 L100.305612,138.472409 L135.62449,138.472409 Z" id="Shape" fill="#4FBF9F"></path>
                        <g id="Group" transform="translate(11.302041, 109.623990)" fill="#193651">
                            <path d="M126.251544,30.2073935 L87.0810742,30.2073935 L87.0810742,19.8903587 C87.0810742,9.14635928 95.8551403,0.110565736 106.778318,0.110565736 C117.477478,0.110565736 126.475561,8.92140321 126.475561,19.8903587 L126.475561,30.2073935 L126.251544,30.2073935 Z M91.3564449,25.9144528 L121.95436,25.9144528 L121.95436,19.8907064 C121.95436,11.5068334 115.105042,4.40420182 106.532487,4.40420182 C98.1836039,4.40420182 91.1327739,11.2822251 91.1327739,19.8907064 L91.1327739,25.9144528 L91.3564449,25.9144528 Z" id="Shape"></path>
                            <rect id="Rectangle-path" x="0.189393243" y="16.2267387" width="4.27502445" height="4.2929407"></rect>
                            <rect id="Rectangle-path" x="13.2388301" y="16.2267387" width="4.27502445" height="4.2929407"></rect>
                            <rect id="Rectangle-path" x="48.9849869" y="16.2267387" width="4.27502445" height="4.2929407"></rect>
                            <rect id="Rectangle-path" x="62.2580947" y="16.2267387" width="4.27502445" height="4.2929407"></rect>
                            <rect id="Rectangle-path" x="98.0042516" y="16.2267387" width="4.27502445" height="4.2929407"></rect>
                            <rect id="Rectangle-path" x="111.053342" y="16.2267387" width="4.27502445" height="4.2929407"></rect>
                        </g>
                        <ellipse id="Oval" fill="#FFFFFF" cx="19.7785714" cy="95.1997809" rx="9.88928571" ry="10.0969465"></ellipse>
                        <path d="M20.484949,106.739148 C13.9326553,106.739148 8.47653061,101.168092 8.47653061,94.4785705 C8.47653061,87.7890486 13.9330084,82.2179926 20.484949,82.2179926 C27.0368895,82.2179926 32.4933673,87.7890486 32.4933673,94.4785705 C32.2648811,101.401376 27.0368895,106.739148 20.484949,106.739148 Z M20.484949,86.9031458 C16.3298187,86.9031458 12.8368394,90.4694726 12.8368394,94.7118546 C12.8368394,98.9542366 16.3298187,102.520563 20.484949,102.520563 C24.6400793,102.520563 28.1330585,98.9542366 28.1330585,94.7118546 C28.1101039,90.4694726 24.6171247,86.9031458 20.484949,86.9031458 Z" id="Shape" fill="#193651"></path>
                        <ellipse id="Oval" fill="#FFFFFF" cx="69.225" cy="95.1997809" rx="9.88928571" ry="10.0969465"></ellipse>
                        <path d="M68.5186224,106.739148 C61.9663288,106.739148 56.5102041,101.168092 56.5102041,94.4785705 C56.5102041,87.7890486 61.9666819,82.2179926 68.5186224,82.2179926 C75.070563,82.2179926 80.5270408,87.7890486 80.5270408,94.4785705 C80.5270408,101.401376 75.0709161,106.739148 68.5186224,106.739148 Z M68.5186224,86.9031458 C64.3634922,86.9031458 60.8705129,90.4694726 60.8705129,94.7118546 C60.8705129,98.9542366 64.3634922,102.520563 68.5186224,102.520563 C72.6737527,102.520563 76.166732,98.9542366 76.166732,94.7118546 C76.166732,90.4694726 72.6737527,86.9031458 68.5186224,86.9031458 Z" id="Shape" fill="#193651"></path>
                        <ellipse id="Oval" fill="#FFFFFF" cx="117.258673" cy="95.1997809" rx="9.88928571" ry="10.0969465"></ellipse>
                        <path d="M117.965051,106.739148 C111.412757,106.739148 105.956633,101.168092 105.956633,94.4785705 C105.956633,87.7890486 111.41311,82.2179926 117.965051,82.2179926 C124.517345,82.2179926 129.973469,87.7890486 129.973469,94.4785705 C129.973469,101.401376 124.745478,106.739148 117.965051,106.739148 Z M117.965051,86.9031458 C113.809921,86.9031458 110.316941,90.4694726 110.316941,94.7118546 C110.316941,98.9542366 113.809921,102.520563 117.965051,102.520563 C122.120181,102.520563 125.613161,98.9542366 125.613161,94.7118546 C125.613161,90.4694726 122.325713,86.9031458 117.965051,86.9031458 Z" id="Shape" fill="#193651"></path>
                    </g>
                </g>
            </g>
        </g>
    </g>
</svg>