<?xml version="1.0" encoding="UTF-8"?>
<svg width="66px" height="66px" viewBox="0 0 66 66" version="1.1" xmlns="http://www.w3.org/2000/svg" xmlns:xlink="http://www.w3.org/1999/xlink">
    <!-- Generator: Sketch 48.1 (47250) - http://www.bohemiancoding.com/sketch -->
    <title>Artboard</title>
    <desc>Created with Sketch.</desc>
    <defs></defs>
    <g id="Page-1" stroke="none" stroke-width="1" fill="none" fill-rule="evenodd">
        <g id="Artboard" fill-rule="nonzero">
            <g id="Group-20" transform="translate(0.000000, -1.000000)">
                <g id="Group-19">
                    <g id="user" transform="translate(0.077189, 0.138280)">
                        <path d="M47.8719073,42.1164471 L45.8304117,42.1164471 L45.8304117,21.6134537 L57.0741785,5.4078818 C57.6834195,4.46740857 57.3841721,3.00223244 56.464937,2.37891519 C55.951918,2.06175919 55.4388986,1.96331397 54.8296575,2.06175919 C54.220416,2.17103 53.8036191,2.47736041 53.5043717,3.00223244 L41.854389,19.7326764 L23.0328844,19.7326764 L11.383067,3.1116724 C11.0730732,2.58680037 10.560054,2.26964438 9.95081273,2.17119915 C9.43779352,1.96348312 8.92477436,2.06192834 8.42250163,2.37891519 C7.3964633,3.00223244 7.19343797,4.46740857 7.81326036,5.4078818 L19.0462806,21.5150085 L19.0462806,42.0070072 L17.0049504,42.0070072 L17.0049504,22.2477657 L6.07101221,6.66551107 C4.84194851,4.67529375 5.35496772,1.96348312 7.30024119,0.705853879 C8.21947634,0.0825366266 9.34157146,-0.136174148 10.4638319,0.0825366266 C11.5860923,0.29025266 12.5051622,1.02300988 13.1251499,1.96331397 L24.0589227,17.6440139 L40.8177696,17.6440139 L51.7515423,1.96331397 C52.3607838,1.02284073 53.2798534,0.399692622 54.4128606,0.180981848 C55.5351211,-0.026734186 56.6573811,0.180981848 57.5764512,0.8042991 C59.5217248,2.06175919 60.0347438,4.77373897 58.805515,6.76378714 L47.8717418,22.4554818 L47.8717418,42.1164471 L47.8719073,42.1164471 Z" id="Shape" fill="#193651"></path>
                        <ellipse id="Oval" fill="#D3D7DA" cx="32.4383249" cy="8.97563627" rx="6.08218592" ry="6.21390203"></ellipse>
                        <g id="Group" transform="translate(25.680341, 1.380867)" fill="#193651">
                            <path d="M7.11993193,14.7050791 C3.20184076,14.7050791 0.0926185858,11.3545934 0.0926185858,7.38014692 C0.0926185858,3.29611786 3.30697098,0.055214759 7.11993193,0.055214759 C10.9328929,0.055214759 14.1472453,3.40570052 14.1472453,7.38014692 C14.1474078,11.4640066 11.0380231,14.7050791 7.11993193,14.7050791 Z M7.11993193,2.14626204 C4.30481437,2.14626204 2.09886715,4.55504823 2.09886715,7.37997757 C2.09886715,10.2049069 4.4097821,12.6136931 7.11993193,12.6136931 C9.93504945,12.6136931 12.1409967,10.2049069 12.1409967,7.37997757 C12.1409967,4.55504823 9.93504945,2.14626204 7.11993193,2.14626204 Z" id="Shape"></path>
                            <rect id="Rectangle-path" x="6.11152673" y="22.8731373" width="2.00624856" height="2.09121665"></rect>
                            <rect id="Rectangle-path" x="6.11152673" y="28.0082792" width="2.00624856" height="2.09121665"></rect>
                            <rect id="Rectangle-path" x="6.11152673" y="33.0229988" width="2.00624856" height="2.09121665"></rect>
                        </g>
                        <path d="M17.5707594,66.2816219 L17.5707594,62.3484689 C17.5707594,57.6894253 13.756451,53.8538176 9.1232789,53.8538176 C4.49010679,53.8538176 0.675798435,57.6894253 0.675798435,62.3484689 L0.675798435,66.2816219 L17.5707594,66.2816219 Z" id="Shape" fill="#FDBF5E"></path>
                        <path d="M18.814754,66.9720555 L0,66.9720555 L0,62.0018384 C0,56.8259316 4.21444768,52.4729504 9.46117809,52.4729504 C14.6003063,52.4729504 18.9223562,56.7175589 18.9223562,62.0018384 L18.9223562,66.9720555 L18.814754,66.9720555 Z M2.05342274,64.9039368 L16.7505212,64.9039368 L16.7505212,62.0020054 C16.7505212,57.9630865 13.4605877,54.5414037 9.35357587,54.5414037 C5.34335623,54.5414037 1.95663064,57.8548819 1.95663064,62.0020054 L1.95663064,64.9039368 L2.05342274,64.9039368 Z" id="Shape" fill="#193651"></path>
                        <path d="M41.2237046,66.2816219 L41.2237046,62.3484689 C41.2237046,57.6894253 37.4093962,53.8538176 32.7762241,53.8538176 C28.1430521,53.8538176 24.3287437,57.6894253 24.3287437,62.3484689 L24.3287437,66.2816219 L41.2237046,66.2816219 Z" id="Shape" fill="#F16051"></path>
                        <path d="M42.5753015,66.9720555 L23.6529453,66.9720555 L23.6529453,62.0018384 C23.6529453,56.8259316 27.8673929,52.4729504 33.1141234,52.4729504 C38.2532516,52.4729504 42.5753015,56.7175589 42.5753015,62.0018384 L42.5753015,66.9720555 Z M25.7065343,64.9039368 L40.4036327,64.9039368 L40.4036327,62.0020054 C40.4036327,57.9630865 37.1136992,54.5414037 32.9960437,54.5414037 C28.985824,54.5414037 25.5884546,57.8548819 25.5884546,62.0020054 L25.5884546,64.9039368 L25.7065343,64.9039368 Z" id="Shape" fill="#193651"></path>
                        <path d="M64.87665,66.2816219 L64.87665,62.3484689 C64.87665,57.6894253 61.0623416,53.8538176 56.4291694,53.8538176 C51.7959972,53.8538176 47.9816889,57.6894253 47.9816889,62.3484689 L47.9816889,66.2816219 L64.87665,66.2816219 Z" id="Shape" fill="#4FBF9F"></path>
                        <g id="Group" transform="translate(5.406388, 52.472950)" fill="#193651">
                            <path d="M60.3930546,14.4591623 L41.6556654,14.4591623 L41.6556654,9.52077922 C41.6556654,4.37802398 45.8527836,0.0529237294 51.07794,0.0529237294 C56.1959364,0.0529237294 60.5002142,4.27034583 60.5002142,9.52077922 L60.5002142,14.4591623 L60.3930546,14.4591623 Z M43.7008102,12.4042903 L58.3374752,12.4042903 L58.3374752,9.52094565 C58.3374752,5.50789566 55.0610699,2.10812856 50.9603455,2.10812856 C46.9666157,2.10812856 43.5938161,5.40038397 43.5938161,9.52094565 L43.5938161,12.4042903 L43.7008102,12.4042903 Z" id="Shape"></path>
                            <rect id="Rectangle-path" x="0.0905972007" y="7.7671398" width="2.04497923" height="2.05487197"></rect>
                            <rect id="Rectangle-path" x="6.33286029" y="7.7671398" width="2.04497923" height="2.05487197"></rect>
                            <rect id="Rectangle-path" x="23.4322123" y="7.7671398" width="2.04497923" height="2.05487197"></rect>
                            <rect id="Rectangle-path" x="29.7814695" y="7.7671398" width="2.04497923" height="2.05487197"></rect>
                            <rect id="Rectangle-path" x="46.8808217" y="7.7671398" width="2.04497923" height="2.05487197"></rect>
                            <rect id="Rectangle-path" x="53.122919" y="7.7671398" width="2.04497923" height="2.05487197"></rect>
                        </g>
                        <ellipse id="Oval" fill="#FFFFFF" cx="9.46117809" cy="45.5686149" rx="4.73058905" ry="4.83303493"></ellipse>
                        <path d="M9.79907734,51.0920832 C6.66475502,51.0920832 4.05479062,48.4254247 4.05479062,45.2233982 C4.05479062,42.0213714 6.66492393,39.3547129 9.79907734,39.3547129 C12.9332307,39.3547129 15.543364,42.0213714 15.543364,45.2233982 C15.4340665,48.5370892 12.9332307,51.0920832 9.79907734,51.0920832 Z M9.79907734,41.5973225 C7.81145007,41.5973225 6.14056603,43.3043912 6.14056603,45.3350626 C6.14056603,47.365734 7.81145007,49.0728026 9.79907734,49.0728026 C11.7867046,49.0728026 13.4575886,47.365734 13.4575886,45.3350626 C13.4466081,43.3043912 11.7757242,41.5973225 9.79907734,41.5973225 Z" id="Shape" fill="#193651"></path>
                        <ellipse id="Oval" fill="#FFFFFF" cx="33.1141234" cy="45.5686149" rx="4.73058905" ry="4.83303493"></ellipse>
                        <path d="M32.7762241,51.0920832 C29.6419019,51.0920832 27.0319375,48.4254247 27.0319375,45.2233982 C27.0319375,42.0213714 29.6420708,39.3547129 32.7762241,39.3547129 C35.9103775,39.3547129 38.5205109,42.0213714 38.5205109,45.2233982 C38.5205109,48.5370892 35.9105464,51.0920832 32.7762241,51.0920832 Z M32.7762241,41.5973225 C30.7885969,41.5973225 29.1177129,43.3043912 29.1177129,45.3350626 C29.1177129,47.365734 30.7885969,49.0728026 32.7762241,49.0728026 C34.7638514,49.0728026 36.4347354,47.365734 36.4347354,45.3350626 C36.4347354,43.3043912 34.7638514,41.5973225 32.7762241,41.5973225 Z" id="Shape" fill="#193651"></path>
                        <ellipse id="Oval" fill="#FFFFFF" cx="56.09127" cy="45.5686149" rx="4.73058905" ry="4.83303493"></ellipse>
                        <path d="M56.4291694,51.0920832 C53.294847,51.0920832 50.6848829,48.4254247 50.6848829,45.2233982 C50.6848829,42.0213714 53.2950158,39.3547129 56.4291694,39.3547129 C59.5634919,39.3547129 62.173456,42.0213714 62.173456,45.2233982 C62.173456,48.5370892 59.6726204,51.0920832 56.4291694,51.0920832 Z M56.4291694,41.5973225 C54.4415423,41.5973225 52.7706579,43.3043912 52.7706579,45.3350626 C52.7706579,47.365734 54.4415423,49.0728026 56.4291694,49.0728026 C58.4167965,49.0728026 60.0876809,47.365734 60.0876809,45.3350626 C60.0876809,43.3043912 58.5151138,41.5973225 56.4291694,41.5973225 Z" id="Shape" fill="#193651"></path>
                    </g>
                </g>
            </g>
        </g>
    </g>
</svg>