<?xml version="1.0" encoding="UTF-8" standalone="no"?>
<svg width="472px" height="264px" viewBox="0 0 472 264" version="1.1" xmlns="http://www.w3.org/2000/svg" xmlns:xlink="http://www.w3.org/1999/xlink">
    <!-- Generator: Sketch 47.1 (45422) - http://www.bohemiancoding.com/sketch -->
    <title>Group 17</title>
    <desc>Created with Sketch.</desc>
    <defs></defs>
    <g id="Page-1" stroke="none" stroke-width="1" fill="none" fill-rule="evenodd">
        <g id="Group-17">
            <rect id="Rectangle-10-Copy-3" fill="#EC6842" x="0" y="0" width="472" height="264"></rect>
            <g id="Group-4" transform="translate(159.000000, 57.000000)" fill-rule="nonzero">
                <g id="Group-10">
                    <g id="Group-12">
                        <g id="Group-5" transform="translate(0.351718, 0.022962)">
                            <g id="networking">
                                <ellipse id="Oval" fill="#FFFFFF" cx="25.8674428" cy="12.7402296" rx="10.7623667" ry="10.8387028"></ellipse>
                                <path d="M26.2413264,26.24107 C19.1346791,26.24107 13.2169416,20.2736443 13.2169416,13.1081761 C13.2169416,5.94270788 19.1346791,0 26.2413264,0 C33.3479738,0 39.2657113,5.96742572 39.2657113,13.1328939 C39.5131455,20.2736443 33.595408,26.24107 26.2413264,26.24107 Z M26.2413264,4.51911516 C21.7346533,4.51911516 17.9461523,8.33917909 17.9461523,12.8833983 C17.9461523,17.4276175 21.75955,21.472073 26.2413264,21.472073 C30.7231029,21.472073 34.5365006,17.6520091 34.5365006,13.1077899 C34.5365006,8.56357067 30.9954338,4.51911516 26.2413264,4.51911516 Z" id="Shape" fill="#193651"></path>
                                <path d="M35.2044848,31.5653451 L35.2044848,31.5653451 C32.5848237,32.7760224 29.715855,33.2551432 26.6222777,33.2551432 C23.5287004,33.2551432 20.6597316,32.5235866 18.0400706,31.5653451 L18.0400706,31.5653451 L18.0400706,31.5653451 C9.68208611,31.5653451 3.02101522,38.3249276 3.02101522,46.7493378 L3.02101522,64.834196 C3.02101522,65.3133168 3.49493151,65.7928277 3.96923371,65.7928277 L49.2760935,65.7928277 C49.7500098,65.7928277 50.224312,65.313707 50.224312,64.834196 L50.224312,46.7493378 C50.2486253,38.3249276 43.5624692,31.5653451 35.2044848,31.5653451 Z" id="Shape" fill="#F16051"></path>
                                <path d="M48.7782939,68.8352706 L3.55865539,68.8352706 C1.41822658,68.8352706 0,67.1508659 0,65.2401108 L0,47.2129743 C0,37.5833596 7.86415106,29.6638183 17.3709657,29.6638183 L17.8437079,29.6638183 L18.3164501,29.9150594 C23.3187401,32.0774446 28.7937722,32.0774446 33.7960621,29.9150594 L34.2688043,29.6638183 L34.7415465,29.6638183 C44.4970513,29.6638183 52.1125123,37.6086393 52.1125123,47.2129743 L52.1125123,65.2401108 C52.1132822,67.1757567 50.6946707,68.8352706 48.7782939,68.8352706 Z M4.75321486,64.0329087 L47.3596824,64.0329087 L47.3596824,47.2129743 C47.3596824,40.2486161 41.8846502,34.7174214 35.2150587,34.4657913 C29.5159744,36.8794177 22.8463828,36.8794177 17.1222756,34.4657913 C10.228632,34.7170325 4.75359983,40.2233364 4.75359983,47.2129743 C4.75321486,47.2129743 4.75321486,64.0329087 4.75321486,64.0329087 Z" id="Shape" fill="#193651"></path>
                                <ellipse id="Oval" fill="#FFFFFF" cx="126.316199" cy="33.2767192" rx="10.7623667" ry="10.8387028"></ellipse>
                                <path d="M126.693826,46.7775596 C119.585136,46.7775596 113.665698,40.7863445 113.665698,33.5923109 C113.665698,26.3982773 119.585519,20.1561842 126.693826,20.1561842 C133.802516,20.1561842 139.721954,26.1473993 139.721954,33.3414329 C139.721954,40.5354665 134.050021,46.7775596 126.693826,46.7775596 Z M126.693826,24.944193 C122.185858,24.944193 118.396268,28.7794858 118.396268,33.3418207 C118.396268,37.9041556 122.185858,41.7394483 126.693826,41.7394483 C131.201794,41.7394483 134.991384,37.9041556 134.991384,33.3418207 C134.991384,28.7794858 131.424779,24.944193 126.693826,24.944193 Z" id="Shape" fill="#193651"></path>
                                <path d="M135.258565,52.1018347 L135.258565,52.1018347 C132.640292,53.312512 129.772843,53.7916328 126.680904,53.7916328 C123.588966,53.7916328 120.721131,53.0600762 118.103244,52.1018347 L118.103244,52.1018347 L118.103244,52.1018347 C109.749687,52.1018347 103.092144,58.8614172 103.092144,67.2858273 L103.092144,85.3706856 C103.092144,85.8498064 103.56581,86.3293173 104.039861,86.3293173 L149.347791,86.3293173 C149.821456,86.3293173 150.295507,85.8501965 150.295507,85.3706856 L150.295507,67.2858273 C150.269664,58.8360566 143.612122,52.1018347 135.258565,52.1018347 Z" id="Shape" fill="#FDBF5E"></path>
                                <path d="M149.758637,88.9914548 L104.538998,88.9914548 C102.647644,88.9914548 101.20401,87.5499761 101.20401,85.6027084 L101.20401,67.4709786 C101.20401,57.785493 109.068161,49.8200025 118.574976,49.8200025 L119.047718,49.8200025 L119.52046,50.0727014 C124.52275,52.2476327 129.997782,52.2476327 135.000072,50.0727014 L135.472814,49.8200025 L135.945557,49.8200025 C145.701062,49.8200025 153.316523,57.8109193 153.316523,67.4709786 L153.316523,85.6027084 C153.09324,87.2972772 151.675014,88.9914548 149.758637,88.9914548 Z M105.733558,84.1361944 L148.340025,84.1361944 L148.340025,67.2186709 C148.340025,60.2139055 142.864993,54.6506189 135.97135,54.3975289 C130.247242,56.8251591 123.602674,56.8251591 117.878566,54.3975289 C110.984923,54.6502277 105.509891,60.1884792 105.509891,67.2186709 L105.509891,84.1361944 L105.733558,84.1361944 Z" id="Shape" fill="#193651"></path>
                                <ellipse id="Oval" fill="#FFFFFF" cx="67.0287752" cy="97.9286309" rx="10.7623667" ry="10.8387028"></ellipse>
                                <path d="M66.6480992,111.049166 C59.5410731,111.049166 53.6230202,105.087356 53.6230202,97.9286309 C53.6230202,90.7699058 59.5414561,84.8080958 66.6480992,84.8080958 C73.7547422,84.8080958 79.6731782,90.7699058 79.6731782,97.9286309 C79.8961106,105.087742 73.9780578,111.049166 66.6480992,111.049166 Z M66.6480992,89.3480386 C62.1411859,89.3480386 58.3524829,93.1645076 58.3524829,97.7044504 C58.3524829,102.244393 62.1411859,106.060862 66.6480992,106.060862 C71.1550125,106.060862 74.9437154,102.244393 74.9437154,97.7044504 C74.9437154,93.1645076 71.3779449,89.3480386 66.6480992,89.3480386 Z" id="Shape" fill="#193651"></path>
                                <path d="M75.2158874,116.753746 L75.2158874,116.753746 C72.5976141,117.964424 69.7301652,118.443544 66.6382267,118.443544 C63.5462882,118.443544 60.6784535,117.711988 58.060566,116.753746 L58.060566,116.753746 L58.060566,116.753746 C49.7070091,116.753746 43.0494669,123.513329 43.0494669,131.937739 L43.0494669,150.022597 C43.0494669,150.501718 43.5231321,150.981229 43.9971831,150.981229 L89.3051136,150.981229 C89.7787788,150.981229 90.2528298,150.502108 90.2528298,150.022597 L90.2528298,131.937739 C90.2520583,123.513719 83.3202686,116.753746 75.2158874,116.753746 Z" id="Shape" fill="#4FBF9F"></path>
                                <g id="Group" transform="translate(8.307792, 14.831909)" fill="#193651">
                                    <path d="M80.9878005,138.658339 L35.5836735,138.658339 C33.6835519,138.658339 32.233225,137.233492 32.233225,135.308691 L32.233225,117.136377 C32.233225,107.56264 40.1338324,99.6890527 49.6847184,99.6890527 L50.1596521,99.6890527 L50.6345858,99.938836 C55.6600652,102.088674 61.1604783,102.088674 66.1859576,99.938836 L66.6608913,99.6890527 L67.1358251,99.6890527 C76.936554,99.6890527 84.5873184,107.587773 84.5873184,117.136377 L84.5873184,135.058908 C84.338249,137.233492 82.6628313,138.658339 80.9878005,138.658339 Z M36.7586317,133.884231 L79.5626126,133.884231 L79.5626126,117.16151 C79.5626126,110.237564 74.0621995,104.738464 67.1365986,104.488295 C61.3859558,106.887915 54.7105845,106.887915 48.9599417,104.488295 C42.0343408,104.738078 36.5339277,110.237564 36.5339277,117.16151 L36.5339277,133.884231 L36.7586317,133.884231 Z" id="Shape"></path>
                                    <path d="M106.815222,111.637278 C114.215756,103.738558 119.241236,93.9397838 121.166496,83.441539 L116.391247,82.4915118 C114.491125,92.5400693 109.690736,101.863637 102.514906,109.01262 L101.789742,100.414043 L97.0144927,100.888863 L98.9146143,117.136377 L115.166011,115.236709 L114.691077,110.4626 L106.815222,111.637278 Z" id="Shape"></path>
                                    <path d="M85.0630257,0.0289996081 L81.2376435,2.90344076 L86.0128931,9.12752998 C75.4870007,6.72790907 64.4857878,7.20272932 54.459968,10.8021607 L56.1349989,15.3516192 C65.7110239,12.0019711 76.2117773,11.5271509 86.0128931,14.1518087 L79.0872921,19.4011245 L81.9624201,23.2255928 L95.1135976,13.4272052 L85.0630257,0.0289996081 Z" id="Shape"></path>
                                    <path d="M11.9066036,76.2674226 L19.807211,79.6170707 L21.7324716,75.3177821 L6.68117253,68.8686559 L0.180614042,83.9163592 L4.48092996,85.8160269 L7.60628771,78.6670435 C10.7065065,88.940638 16.68224,98.2642053 24.8079381,105.188152 L27.9081569,101.613853 C20.2821447,94.9149439 14.7817316,86.0661968 11.9066036,76.2674226 Z" id="Shape"></path>
                                    <rect id="Rectangle-path" x="48.2347783" y="116.911727" width="4.77524963" height="4.77410881"></rect>
                                    <rect id="Rectangle-path" x="63.3112164" y="116.911727" width="4.77524963" height="4.77410881"></rect>
                                    <rect id="Rectangle-path" x="108.015319" y="52.3709722" width="4.77524963" height="4.77410881"></rect>
                                    <rect id="Rectangle-path" x="123.091757" y="52.3709722" width="4.77524963" height="4.77410881"></rect>
                                    <rect id="Rectangle-path" x="7.35605798" y="32.2989902" width="4.77524963" height="4.77410881"></rect>
                                    <rect id="Rectangle-path" x="22.4324961" y="32.2989902" width="4.77524963" height="4.77410881"></rect>
                                </g>
                            </g>
                        </g>
                    </g>
                </g>
            </g>
        </g>
    </g>
</svg>
