<?xml version="1.0" encoding="UTF-8" standalone="no"?>
<svg width="472px" height="264px" viewBox="0 0 472 264" version="1.1" xmlns="http://www.w3.org/2000/svg" xmlns:xlink="http://www.w3.org/1999/xlink">
    <!-- Generator: Sketch 47.1 (45422) - http://www.bohemiancoding.com/sketch -->
    <title>Group 3</title>
    <desc>Created with Sketch.</desc>
    <defs></defs>
    <g id="Page-1" stroke="none" stroke-width="1" fill="none" fill-rule="evenodd">
        <g id="Group-3">
            <rect id="Rectangle-10" fill="#F9D55C" x="0" y="0" width="472" height="264"></rect>
            <g id="Group-22" transform="translate(155.000000, 51.000000)" fill-rule="nonzero">
                <g id="Group-11">
                    <path d="M79.697768,9.99567561 L108.678214,9.99567561 L108.678214,37.0574823 C108.678214,34.3304916 105.886484,31.8373119 102.323614,31.8373119 C100.542385,31.8373119 98.9470518,32.4085819 97.8037092,33.3177127 C96.6603665,34.2525547 95.9690144,35.5513703 95.9690144,37.0313694 L95.9690144,50.9258447 L79.6973568,50.9258447 L79.6973568,9.99567561 L79.697768,9.99567561 Z" id="Shape" fill="#E1E6E9"></path>
                    <path d="M147.554059,82.2253857 L147.554059,74.7268 L159.394714,58.4302422 L159.394714,12.870063 C159.394714,10.0275769 156.625666,7.42880415 153.091745,7.42880415 C149.557824,7.42880415 146.788777,9.7570633 146.788777,12.870063 L146.788777,10.0275769 C146.788777,7.18509069 144.01973,4.58631797 140.485809,4.58631797 C136.951888,4.58631797 134.182841,6.91457713 134.182841,10.0275769 L134.182841,8.21396349 C134.446365,5.10096375 131.651211,2.77270459 128.11729,2.77270459 C124.583369,2.77270459 121.814321,5.10096375 121.814321,8.21396349 L121.814321,10.0275769 C121.814321,7.18509069 119.045274,4.58631797 115.511353,4.58631797 C111.977432,4.58631797 109.208385,6.91457713 109.208385,10.0275769 L109.208385,39.2911982 C109.208385,36.448712 106.439338,33.8499393 102.905825,33.8499393 L102.905825,33.8499393 C99.3719038,33.8499393 96.6028567,36.1781984 96.6028567,39.2911982 L96.6028567,60.2710744 L111.740015,74.5103054 L111.740015,82.0088911" id="Shape" fill="#FFFFFF"></path>
                    <path d="M149.734428,82.2253857 L149.734428,111.11727 L122.840709,111.11727 C125.57438,111.11727 128.073668,108.310892 128.073668,104.729742 C128.073668,102.939167 127.500998,101.335463 126.58964,100.186122 C125.652508,99.0367802 124.35051,98.3418006 122.866886,98.3418006 L108.678214,98.3418006 L108.678214,82.2253857 L149.734428,82.2253857 L149.734428,82.2253857 Z" id="Shape" fill="#FDBF5E"></path>
                    <rect id="Rectangle-path" fill="#193651" x="140.074142" y="89.4483567" width="4.83014283" height="4.81531401"></rect>
                    <path d="M82.1124282,147.510647 L89.4061763,147.510647 L105.257564,159.27041 L149.573183,159.27041 C152.338021,159.27041 154.865804,156.52028 154.865804,153.010502 C154.865804,149.500723 152.601145,146.750593 149.573183,146.750593 L152.338021,146.750593 C155.10286,146.750593 157.630642,144.000464 157.630642,140.490685 C157.630642,136.980907 155.365984,134.230777 152.338021,134.230777 L154.102093,134.230777 C156.866931,134.230777 159.394714,131.480647 159.394714,127.970869 C159.394714,124.46109 157.130055,121.710961 154.102093,121.710961 L152.338021,121.710961 C155.10286,121.710961 157.630642,118.960831 157.630642,115.451052 C157.630642,111.941274 155.365984,109.191144 152.338021,109.191144 L123.900265,109.191144 C126.665103,109.191144 129.192886,106.441014 129.192886,102.931236 L129.192886,102.931236 C129.192886,99.4214576 126.928227,96.6713277 123.900265,96.6713277 L103.493493,96.6713277 L89.6432322,111.705074 L82.3494841,111.705074" id="Shape" fill="#FFFFFF"></path>
                    <path d="M82.1124282,111.11727 L82.1124282,152.047439 L53.1315712,152.047439 L53.1315712,125.253369 C53.1315712,127.976911 55.9465914,130.466938 59.5391842,130.466938 C63.131777,130.466938 65.9467972,128.236105 65.9467972,125.253369 L65.9467972,111.11727 L82.1124282,111.11727 L82.1124282,111.11727 Z" id="Shape" fill="#4FBF9F"></path>
                    <rect id="Rectangle-path" fill="#193651" x="67.6219997" y="140.009154" width="4.83014283" height="4.81531401"></rect>
                    <path d="M50.1512689,89.994485 L50.1512689,82.4958993 L14.2374642,82.2253857 L14.2374642,89.7239715 L2.41507142,106.020529 L2.41507142,151.580708 C2.41507142,154.423195 5.17367037,157.021967 8.6942571,157.021967 C12.2148438,157.021967 14.9734428,154.423195 14.9734428,151.580708 L14.9734428,154.423195 C14.9734428,157.265681 17.7320417,159.864453 21.2526285,159.864453 C24.7732152,159.864453 27.5318142,157.536194 27.5318142,154.423195 L27.5318142,156.236808 C27.5318142,159.079294 30.2904131,161.678067 33.8109998,161.678067 C37.3315866,161.678067 40.0901855,159.349808 40.0901855,156.236808 L40.0901855,154.423195 C40.0901855,157.265681 42.8487845,159.864453 46.3693712,159.864453 C49.8899579,159.864453 52.6485569,157.536194 52.6485569,154.423195 L52.6485569,125.186792 C52.6485569,128.029278 55.4071558,130.628051 58.9277426,130.628051 C62.4483293,130.628051 65.2069283,128.299792 65.2069283,125.186792 L65.2069283,104.206916 L50.1512689,89.994485 Z" id="Shape" fill="#FFFFFF"></path>
                    <path d="M50.7164998,66.0034528 L50.7164998,82.2253857 L9.66028567,82.2253857 L9.66028567,53.3335017 L36.7883884,53.3335017 C34.0547172,53.3335017 31.5554297,56.1167006 31.5554297,59.6686823 C31.5554297,63.220664 33.7945593,66.0038629 36.7883884,66.0038629 L50.7164998,66.0038629 L50.7164998,66.0034528 Z" id="Shape" fill="#F16051"></path>
                    <rect id="Rectangle-path" fill="#193651" x="19.3205713" y="67.7794437" width="4.83014283" height="4.81531401"></rect>
                    <path d="M72.6213838,14.5819945 L56.7266861,2.77270459 L12.2899847,2.77270459 C9.51759199,2.77270459 7.24715427,5.53441684 7.24715427,9.05897682 C7.24715427,12.5835368 9.51800041,15.3452491 12.2899847,15.3452491 L9.49104432,15.3452491 C6.71865159,15.3452491 4.18396254,18.1069613 4.18396254,21.368288 C4.18396254,24.8928479 6.45480868,27.6541533 9.49104432,27.6541533 L7.7221532,27.6541533 C4.68591756,27.6541533 2.41507142,30.4158656 2.41507142,33.9404256 C2.41507142,37.4649855 4.71205679,40.2266978 7.7221532,40.2266978 L9.49104432,40.2266978 C6.71865159,40.2266978 4.18396254,42.98841 4.18396254,46.51297 C4.18396254,50.03753 6.45480868,52.7992422 9.49104432,52.7992422 L38.0330481,52.7992422 C35.2606553,52.7992422 32.7259663,55.5609545 32.7259663,59.0855145 C32.7259663,62.6100745 34.9968124,65.3717867 38.0330481,65.3717867 L58.4955773,65.3717867 L72.3836802,50.2747248 L79.6973568,50.2747248 L79.6973568,15.0816089 L72.6213838,14.5819945 Z" id="Shape" fill="#FFFFFF"></path>
                    <g id="Group" transform="translate(0.000000, 0.365048)" fill="#193651">
                        <path d="M160.848684,58.2707354 L160.848684,12.7242687 C160.848684,10.7012167 159.849772,8.38539234 158.088973,7.13400719 C155.066626,4.57852963 150.54571,4.3388764 147.286747,6.36192849 C145.788583,3.80645093 143.002853,2.28905893 139.507274,2.28905893 C137.483432,2.28905893 135.749059,2.79471901 134.224469,3.80645093 C132.962922,1.51698023 130.203211,0.239241453 127.180865,0.239241453 C124.158518,0.239241453 121.398808,1.51698023 119.900644,3.80645093 C118.402481,2.79471901 116.641681,2.28905893 114.617839,2.28905893 C110.333945,2.28905893 106.838366,5.08418971 106.076071,8.65139919 L76.9023363,8.65139919 L76.9023363,12.4578501 L72.8810786,12.4578501 L57.558749,0.239653228 L12.3264092,0.239653228 C8.04251549,0.239653228 4.78314603,4.31252279 4.78314603,9.15747104 C4.78314603,10.9408699 5.28239833,12.4582619 6.04469317,14.0024193 C3.52200544,15.5193995 1.76079944,18.3408839 1.76079944,21.6420866 C1.76079944,23.6651386 2.26005174,25.4485375 3.2589629,26.9926949 C1.26154714,28.4833215 0,31.3048059 0,34.3395899 C0,37.4007275 1.26154714,40.1958583 3.52200544,41.7132503 C2.52309428,43.2306423 2.02384198,45.0140412 2.02384198,47.0638587 C2.02384198,51.4027351 4.78355259,54.9431791 8.30555803,55.7152578 L8.30555803,85.2366649 L12.0637732,85.2366649 L12.0637732,89.3095345 L0,105.121706 L0,150.694938 C0,155.033815 4.02125775,158.574259 8.80481033,158.574259 C10.5656098,158.574259 12.0637732,158.068599 13.5883629,157.29652 C15.0865264,159.851998 17.8722566,161.36939 21.3678359,161.36939 C23.3916779,161.36939 25.1260511,160.863729 26.6506408,159.851998 C28.1488042,161.87505 30.9345345,163.419207 33.9308614,163.419207 C36.9271883,163.419207 39.7129186,162.141468 41.2110821,159.851998 C42.7092455,160.863729 44.470045,161.36939 46.4938869,161.36939 C50.7777807,161.36939 54.2733599,158.574259 55.0356547,155.007049 L84.1829636,155.007049 L84.1829636,151.200598 L88.2042213,151.200598 L104.02621,163.152788 L149.021933,163.152788 C153.305827,163.152788 156.801406,159.079919 156.801406,154.234971 C156.801406,152.451572 156.302154,150.93418 155.539859,149.390022 C158.062953,147.87263 159.561117,145.051146 159.561117,141.510702 C159.561117,139.48765 159.061864,137.704251 158.062953,136.160094 C160.060369,134.642701 161.584959,131.821217 161.584959,128.786433 C161.584959,125.725295 160.323412,122.930165 158.325996,121.412773 C159.324907,119.895381 159.824159,118.111982 159.824159,116.062164 C159.824159,111.723288 157.064449,108.182844 153.542443,107.410765 L153.542443,77.8893581 L149.784228,77.8893581 L149.784228,73.8164885 L160.848684,58.2707354 Z M82.1855478,13.4695821 L106.050052,13.4695821 L106.050052,31.5444591 C105.051141,31.0387991 103.526957,30.7723804 102.291837,30.7723804 C97.5082839,30.7723804 93.4870262,34.3395899 93.4870262,38.6517009 L93.4870262,50.3642377 L82.1855478,50.3642377 L82.1855478,13.4695821 Z M9.54067895,50.6310681 C8.04251549,50.6310681 6.78096835,48.8476693 6.78096835,46.8246172 C6.78096835,44.8015651 8.04251549,43.0181663 9.54067895,43.0181663 L9.54067895,43.0181663 L26.1249622,43.0181663 L26.1249622,37.933153 L9.54067895,37.933153 L7.77987951,37.933153 C6.28171605,37.933153 5.02016891,36.1497542 5.02016891,34.1267021 C5.02016891,32.0768846 6.28171605,30.3202511 7.77987951,30.3202511 L26.1249622,30.3202511 L26.1249622,25.2356497 L9.54067895,25.2356497 L9.54067895,25.2356497 C8.04251549,25.2356497 6.78096835,23.4522508 6.78096835,21.4291987 C6.78096835,19.6457999 8.04251549,18.1284079 9.54067895,18.1284079 L26.1249622,18.1284079 L26.1249622,13.0438064 L12.3264092,13.0438064 C11.0648621,13.0438064 9.80331493,11.2604075 9.80331493,9.23735545 C9.80331493,7.21430337 11.0648621,5.43090452 12.3264092,5.43090452 L55.5609267,5.43090452 L71.3829151,17.3830946 L76.9023363,17.3830946 L76.9023363,47.9425872 L71.1202792,47.9425872 L57.2957065,63.1160954 L37.9517126,63.1160954 C36.4535491,63.1160954 35.192002,61.3326966 35.192002,59.3096445 C35.192002,57.2865924 36.4535491,55.5031936 37.9517126,55.5031936 L37.9517126,55.5031936 L47.9916438,55.5031936 L47.9916438,50.4177685 L37.9252864,50.4177685 L9.54067895,50.4177685 L9.54067895,50.6310681 Z M37.9517126,68.466292 L49.515827,68.466292 L49.515827,79.912822 L13.0622778,79.912822 L13.0622778,55.7420232 L30.9081083,55.7420232 C30.408856,56.7537552 30.1458134,58.2975008 30.1458134,59.5484742 C30.408856,64.3934224 33.6678189,68.466292 37.9517126,68.466292 Z M49.7528498,114.278765 L49.7528498,153.22365 C49.7528498,154.741042 47.9920504,156.018781 45.9946346,156.018781 C43.9972189,156.018781 42.2364194,154.741042 42.2364194,153.22365 L42.2364194,136.426512 L37.215844,136.426512 L37.215844,155.007049 C37.215844,156.524441 35.4550445,157.80218 33.4576288,157.80218 C31.460213,157.80218 29.6994136,156.524441 29.6994136,155.007049 L29.6994136,136.426512 L24.6267988,136.426512 L24.6267988,153.22365 C24.6267988,154.741042 22.8659993,156.018781 20.8685836,156.018781 C18.8711678,156.018781 17.0839421,154.741042 17.0839421,153.22365 L17.0839421,136.426512 L12.5630255,136.426512 L12.5630255,150.162513 C12.5630255,151.679905 10.8022261,152.957644 8.80481033,152.957644 C6.80739457,152.957644 5.04659513,151.679905 5.04659513,150.162513 L5.04659513,106.639098 L16.8473258,90.6140386 L16.8473258,85.0237771 L47.0195655,85.0237771 L47.0195655,90.8800455 L62.1056853,104.882053 L62.1056853,124.474322 C62.1056853,125.991714 60.3448858,127.269453 58.3474701,127.269453 C56.3500543,127.269453 54.5892549,125.991714 54.5892549,124.474322 L54.5892549,114.278765 L49.7528498,114.278765 Z M78.6635423,149.92286 L54.7990384,149.92286 L54.7990384,131.847982 C55.7979496,132.353643 57.3221327,132.620061 58.5572536,132.620061 C63.3408062,132.620061 67.362064,129.052852 67.362064,124.740741 L67.362064,113.028204 L78.6635423,113.028204 L78.6635423,149.92286 L78.6635423,149.92286 Z M67.362064,107.650418 L67.362064,102.80547 L52.2759441,88.8034626 L52.2759441,84.9970117 L54.7990384,84.9970117 L54.7990384,68.4395266 L59.582591,68.4395266 L73.4071637,53.1597803 L77.1653789,53.1597803 L77.1653789,55.7152578 L93.5130459,55.7152578 L93.5130459,60.5602061 L108.599166,74.5622136 L108.599166,78.3686646 L106.076071,78.3686646 L106.076071,94.9261496 L101.292519,94.9261496 L87.4679461,110.205896 L83.7097309,110.205896 L83.7097309,107.650418 L67.362064,107.650418 L67.362064,107.650418 Z M151.308411,112.761373 C152.806575,112.761373 154.068122,114.544772 154.068122,116.567824 C154.068122,117.579556 153.805486,118.590876 153.069211,119.362955 C152.806575,119.628962 152.070299,120.374687 151.308411,120.374687 L134.724128,120.374687 L134.724128,125.458877 L153.069211,125.458877 C154.567374,125.458877 155.828921,127.242276 155.828921,129.265328 C155.828921,131.28838 154.567374,133.071779 153.069211,133.071779 L134.724128,133.071779 L134.724128,138.155968 L151.308411,138.155968 C152.806575,138.155968 154.068122,139.939367 154.068122,141.962419 C154.068122,143.985471 152.806575,145.76887 151.308411,145.76887 L134.724128,145.76887 L134.724128,150.85306 L148.286065,150.85306 C149.784228,150.85306 151.045775,152.636459 151.045775,154.659511 C151.045775,156.682563 149.784228,158.465962 148.286065,158.465962 L105.051141,158.465962 L89.2291521,146.513772 L83.7097309,146.513772 L83.7097309,116.060929 L89.4917881,116.060929 L103.316361,100.781183 L122.660355,100.781183 C124.158518,100.781183 125.420065,102.564582 125.420065,104.587634 C125.420065,106.610686 124.158518,108.394085 122.660355,108.394085 L112.593997,108.394085 L112.593997,112.732961 L151.308005,112.732961 L151.308005,112.761373 L151.308411,112.761373 Z M122.896971,94.9261496 L111.332857,94.9261496 L111.332857,83.4796197 L147.786812,83.4796197 L147.786812,107.650418 L129.940982,107.650418 C130.440234,106.638686 130.703277,105.094941 130.703277,103.843967 C130.439828,98.9990192 127.180865,94.9261496 122.896971,94.9261496 Z M144.001764,72.5391615 L144.001764,78.1294231 L113.855544,78.1294231 L113.855544,72.2731547 L98.7694245,58.2711472 L98.7694245,38.6788781 C98.7694245,37.1614861 100.530224,35.8837473 102.52764,35.8837473 C104.525055,35.8837473 106.285855,37.1614861 106.285855,38.6788781 L106.285855,48.8744347 L111.306024,48.8744347 L111.306024,9.90237257 C111.306024,8.38498057 113.066823,7.10724179 115.064239,7.10724179 C117.061655,7.10724179 118.822454,8.38498057 118.822454,9.90237257 L118.822454,26.6995109 L123.842217,26.6995109 L123.842217,8.11897372 C123.842217,6.60158171 125.603016,5.32384294 127.600432,5.32384294 C129.597848,5.32384294 131.358647,6.60158171 131.358647,8.11897372 L131.358647,26.6995109 L136.378409,26.6995109 L136.378409,9.90237257 C136.378409,8.38498057 138.139209,7.10724179 140.136625,7.10724179 C142.160467,7.10724179 143.89484,8.38498057 143.89484,9.90237257 L143.89484,26.6995109 L148.914602,26.6995109 L148.914602,12.6975034 C148.914602,11.1801113 150.675402,9.90237257 152.672817,9.90237257 C153.671728,9.90237257 154.696659,10.1683794 155.432528,10.9141045 C155.169892,11.4197646 155.695164,11.9258364 155.695164,12.6975034 L155.695164,56.4873365 L144.001764,72.5391615 Z" id="Shape"></path>
                        <rect id="Rectangle-path" x="88.9661096" y="18.3145303" width="5.01976235" height="5.08418971"></rect>
                    </g>
                </g>
            </g>
        </g>
    </g>
</svg>
