<?xml version="1.0" encoding="UTF-8"?>
<svg width="512px" height="512px" viewBox="0 0 512 512" version="1.1" xmlns="http://www.w3.org/2000/svg" xmlns:xlink="http://www.w3.org/1999/xlink">
    <!-- Generator: Sketch 44.1 (41455) - http://www.bohemiancoding.com/sketch -->
    <title>analysis-1</title>
    <desc>Created with Sketch.</desc>
    <defs></defs>
    <g id="Page-1" stroke="none" stroke-width="1" fill="none" fill-rule="evenodd">
        <g id="analysis-1" fill-rule="nonzero" fill="#FFFFFF">
            <path d="M331.217,108.319 C269.75,46.853 169.736,46.853 108.268,108.319 C78.492,138.094 62.093,177.684 62.093,219.794 C62.093,261.904 78.492,301.494 108.267,331.269 C139,362.002 179.371,377.37 219.741,377.37 C260.112,377.37 300.482,362.003 331.216,331.269 C392.683,269.801 392.683,169.787 331.217,108.319 Z M319.76,319.812 C264.611,374.965 174.873,374.962 119.724,319.812 C93.007,293.098 78.294,257.576 78.294,219.794 C78.294,182.012 93.008,146.491 119.723,119.775 C147.298,92.2 183.52,78.413 219.742,78.413 C255.964,78.413 292.185,92.201 319.761,119.776 C374.911,174.926 374.911,264.662 319.76,319.812 Z" id="Shape"></path>
            <path d="M392.752,147.546 C391.027,143.418 386.287,141.468 382.155,143.193 C378.027,144.918 376.079,149.662 377.802,153.791 C386.514,174.651 390.931,196.859 390.931,219.794 C390.931,224.269 394.557,227.895 399.031,227.895 C403.505,227.895 407.132,224.269 407.132,219.794 C407.133,194.704 402.295,170.396 392.752,147.546 Z" id="Shape"></path>
            <path d="M372.665,111.411 C366.589,102.875 359.719,94.758 352.248,87.287 C316.853,51.894 269.796,32.402 219.741,32.402 C215.267,32.402 211.64,36.028 211.64,40.502 C211.64,44.976 215.267,48.603 219.741,48.603 C265.468,48.603 308.458,66.41 340.791,98.744 C347.628,105.58 353.911,113.003 359.465,120.808 C361.046,123.029 363.539,124.211 366.072,124.211 C367.696,124.211 369.337,123.723 370.763,122.709 C374.407,120.114 375.258,115.056 372.665,111.411 Z" id="Shape"></path>
            <path d="M509.576,461.512 L448.479,400.415 C445.314,397.253 440.186,397.253 437.022,400.415 L424.421,413.016 L380.774,369.369 C418.721,328.587 439.536,275.793 439.536,219.794 C439.536,161.086 416.673,105.89 375.16,64.376 C333.646,22.863 278.451,0 219.742,0 C161.032,0 105.838,22.863 64.324,64.376 C-21.373,150.074 -21.373,289.514 64.324,375.212 C105.837,416.724 161.032,439.587 219.742,439.587 C275.742,439.587 328.534,418.772 369.316,380.825 L412.963,424.472 L400.362,437.073 C397.199,440.238 397.199,445.366 400.362,448.529 L461.459,509.626 C463.041,511.207 465.115,511.998 467.188,511.998 C469.261,511.998 471.334,511.207 472.917,509.626 L509.576,472.967 C512.738,469.805 512.738,464.676 509.576,461.512 Z M363.703,363.755 C325.25,402.21 274.123,423.387 219.742,423.387 C165.361,423.387 114.233,402.21 75.78,363.755 C-3.601,284.374 -3.601,155.213 75.78,75.833 C114.234,37.378 165.361,16.201 219.742,16.201 C274.123,16.201 325.25,37.378 363.703,75.833 C402.158,114.287 423.335,165.414 423.335,219.794 C423.335,274.174 402.158,325.302 363.703,363.755 Z M467.189,492.444 L417.547,442.802 L430.138,430.211 C430.141,430.208 430.146,430.205 430.149,430.201 C430.152,430.198 430.155,430.193 430.159,430.19 L442.75,417.599 L492.392,467.241 L467.189,492.444 Z" id="Shape"></path>
            <path d="M331.036,263.537 L321.855,263.537 L321.855,137.709 C321.855,133.234 318.229,129.608 313.755,129.608 L274.872,129.608 C270.397,129.608 266.771,133.234 266.771,137.709 L266.771,263.537 L244.09,263.537 L244.09,176.591 C244.09,172.116 240.463,168.491 235.989,168.491 L197.107,168.491 C192.633,168.491 189.006,172.117 189.006,176.591 L189.006,263.537 L166.325,263.537 L166.325,163.63 C166.325,159.155 162.698,155.529 158.224,155.529 L119.342,155.529 C114.868,155.529 111.241,159.155 111.241,163.63 L111.241,263.536 L102.06,263.536 C97.586,263.536 93.959,267.162 93.959,271.636 C93.959,276.11 97.586,279.737 102.06,279.737 L119.341,279.737 L158.223,279.737 L197.106,279.737 L235.988,279.737 L274.87,279.737 L313.753,279.737 L331.034,279.737 C335.509,279.737 339.135,276.111 339.135,271.636 C339.135,267.161 335.511,263.537 331.036,263.537 Z M150.125,263.537 L127.444,263.537 L127.444,171.731 L150.125,171.731 L150.125,263.537 Z M227.89,263.537 L205.209,263.537 L205.209,184.692 L227.89,184.692 L227.89,263.537 Z M305.655,263.537 L282.974,263.537 L282.974,145.809 L305.655,145.809 L305.655,263.537 Z" id="Shape"></path>
        </g>
    </g>
</svg>