<?xml version="1.0" encoding="UTF-8"?>
<svg width="20px" height="25px" viewBox="0 0 20 25" version="1.1" xmlns="http://www.w3.org/2000/svg" xmlns:xlink="http://www.w3.org/1999/xlink">
    <!-- Generator: Sketch 44.1 (41455) - http://www.bohemiancoding.com/sketch -->
    <title>arrow</title>
    <desc>Created with Sketch.</desc>
    <defs></defs>
    <g id="Page-1" stroke="none" stroke-width="1" fill="none" fill-rule="evenodd">
        <g id="arrow" fill-rule="nonzero" fill="#EF4E28">
            <path d="M9.86444444,24.1733333 C9.66,24.1733333 9.49407407,24.0074074 9.49407407,23.802963 L9.49407407,0.37037037 C9.49407407,0.165925926 9.66,0 9.86444444,0 C10.0688889,0 10.2348148,0.165925926 10.2348148,0.37037037 L10.2348148,23.802963 C10.2348148,24.0074074 10.0696296,24.1733333 9.86444444,24.1733333 Z" id="Shape"></path>
            <path d="M19.1496296,10.0266667 C19.0548148,10.0266667 18.96,9.99037037 18.8874074,9.91851852 L9.86592593,0.894074074 L0.840740741,9.91851852 C0.696296296,10.062963 0.461481481,10.062963 0.317037037,9.91851852 C0.172592593,9.77407407 0.172592593,9.53925926 0.317037037,9.39481481 L9.60444444,0.108148148 C9.67333333,0.0392592593 9.76740741,0 9.86592593,0 L9.86592593,0 C9.96444444,0 10.0585185,0.0392592593 10.1281481,0.108148148 L19.4118519,9.39407407 C19.5562963,9.53851852 19.5562963,9.77333333 19.4118519,9.91777778 C19.3392593,9.99037037 19.2444444,10.0266667 19.1496296,10.0266667 Z" id="Shape"></path>
        </g>
    </g>
</svg>