<?xml version="1.0" encoding="UTF-8"?>
<svg width="27px" height="76px" viewBox="0 0 27 76" version="1.1" xmlns="http://www.w3.org/2000/svg" xmlns:xlink="http://www.w3.org/1999/xlink">
    <!-- Generator: Sketch 44.1 (41455) - http://www.bohemiancoding.com/sketch -->
    <title>arrow-big</title>
    <desc>Created with Sketch.</desc>
    <defs></defs>
    <g id="Page-1" stroke="none" stroke-width="1" fill="none" fill-rule="evenodd">
        <g id="arrow-big" fill-rule="nonzero" fill="#EF4E28">
            <path d="M13.3415,76 C13.152992,76 13,75.4851995 13,74.8508916 L13,2.14910829 C13,1.51480051 13.152992,1 13.3415,1 C13.530008,1 13.683,1.51480051 13.683,2.14910829 L13.683,74.8508916 C13.683,75.4851995 13.530691,76 13.3415,76 Z" id="Shape" transform="translate(13.500000, 38.500000) scale(-1, 1) translate(-13.500000, -38.500000) "></path>
            <path d="M12.3415,76 C12.152992,76 12,75.4851995 12,74.8508916 L12,2.14910829 C12,1.51480051 12.152992,1 12.3415,1 C12.530008,1 12.683,1.51480051 12.683,2.14910829 L12.683,74.8508916 C12.683,75.4851995 12.530691,76 12.3415,76 Z" id="Shape-Copy" transform="translate(12.500000, 38.500000) scale(-1, 1) translate(-12.500000, -38.500000) "></path>
            <path d="M25.57025,13.536 C25.44225,13.536 25.31425,13.487 25.21625,13.39 L13.03725,1.207 L0.85325,13.39 C0.65825,13.585 0.34125,13.585 0.14625,13.39 C-0.04875,13.195 -0.04875,12.878 0.14625,12.683 L12.68425,0.146 C12.77725,0.053 12.90425,0 13.03725,0 L13.03725,0 C13.17025,0 13.29725,0.053 13.39125,0.146 L25.92425,12.682 C26.11925,12.877 26.11925,13.194 25.92425,13.389 C25.82625,13.487 25.69825,13.536 25.57025,13.536 Z" id="Shape"></path>
            <path d="M25.57025,14.536 C25.44225,14.536 25.31425,14.487 25.21625,14.39 L13.03725,2.207 L0.85325,14.39 C0.65825,14.585 0.34125,14.585 0.14625,14.39 C-0.04875,14.195 -0.04875,13.878 0.14625,13.683 L12.68425,1.146 C12.77725,1.053 12.90425,1 13.03725,1 L13.03725,1 C13.17025,1 13.29725,1.053 13.39125,1.146 L25.92425,13.682 C26.11925,13.877 26.11925,14.194 25.92425,14.389 C25.82625,14.487 25.69825,14.536 25.57025,14.536 Z" id="Shape-Copy-2"></path>
        </g>
    </g>
</svg>