<?xml version="1.0" encoding="UTF-8"?>
<svg width="17px" height="14px" viewBox="0 0 17 14" version="1.1" xmlns="http://www.w3.org/2000/svg" xmlns:xlink="http://www.w3.org/1999/xlink">
    <!-- Generator: Sketch 44.1 (41455) - http://www.bohemiancoding.com/sketch -->
    <title>arrow-right</title>
    <desc>Created with Sketch.</desc>
    <defs></defs>
    <g id="Page-1" stroke="none" stroke-width="1" fill="none" fill-rule="evenodd">
        <g id="arrow-right" stroke="#EF4E28" fill-rule="nonzero" fill="#EF4E28">
            <g id="arrow" transform="translate(8.333333, 6.863636) rotate(90.000000) translate(-8.333333, -6.863636) translate(2.333333, -0.636364)">
                <path d="M6.07590909,14.504 C5.93790909,14.504 5.82590909,14.4044444 5.82590909,14.2817778 L5.82590909,0.222222222 C5.82590909,0.0995555556 5.93790909,0 6.07590909,0 C6.21390909,0 6.32590909,0.0995555556 6.32590909,0.222222222 L6.32590909,14.2817778 C6.32590909,14.4044444 6.21440909,14.504 6.07590909,14.504 Z" id="Shape"></path>
                <path d="M11.7509091,6.016 C11.6927273,6.016 11.6345455,5.99422222 11.59,5.95111111 L6.05409091,0.536444444 L0.515909091,5.95111111 C0.427272727,6.03777778 0.283181818,6.03777778 0.194545455,5.95111111 C0.105909091,5.86444444 0.105909091,5.72355556 0.194545455,5.63688889 L5.89363636,0.0648888889 C5.93590909,0.0235555556 5.99363636,0 6.05409091,0 L6.05409091,0 C6.11454545,0 6.17227273,0.0235555556 6.215,0.0648888889 L11.9118182,5.63644444 C12.0004545,5.72311111 12.0004545,5.864 11.9118182,5.95066667 C11.8672727,5.99422222 11.8090909,6.016 11.7509091,6.016 Z" id="Shape"></path>
            </g>
        </g>
    </g>
</svg>