<?xml version="1.0" encoding="UTF-8"?>
<svg width="512px" height="512px" viewBox="0 0 512 512" version="1.1" xmlns="http://www.w3.org/2000/svg" xmlns:xlink="http://www.w3.org/1999/xlink">
    <!-- Generator: Sketch 44.1 (41455) - http://www.bohemiancoding.com/sketch -->
    <title>attracctive</title>
    <desc>Created with Sketch.</desc>
    <defs></defs>
    <g id="Page-1" stroke="none" stroke-width="1" fill="none" fill-rule="evenodd">
        <g id="attracctive" fill-rule="nonzero" fill="#FFFFFF">
            <g id="attractive" transform="translate(0.000000, 71.000000)">
                <path d="M509.968,229.618 C508.809,228.302 481.068,197.002 435.942,165.285 C394.058,135.846 328.84,100.754 256,100.754 C183.16,100.754 117.942,135.846 76.058,165.286 C30.932,197.003 3.192,228.302 2.032,229.619 C-0.677,232.699 -0.677,237.312 2.032,240.392 C3.191,241.708 30.932,273.008 76.058,304.725 C117.942,334.163 183.16,369.255 256,369.255 C328.84,369.255 394.058,334.163 435.943,304.723 C481.069,273.006 508.809,241.707 509.969,240.39 C512.677,237.311 512.677,232.698 509.968,229.618 Z M85.764,291.613 C52.899,268.559 29.143,245.242 19.299,235.001 C29.092,224.806 52.675,201.65 85.435,178.625 C117.266,156.253 163.106,130.477 215.098,120.907 C168.331,137.724 134.794,182.518 134.794,235.004 C134.794,287.489 168.328,332.282 215.094,349.1 C163.239,339.554 117.518,313.89 85.764,291.613 Z M151.1,235.004 C151.1,177.162 198.158,130.104 256,130.104 C313.842,130.104 360.9,177.162 360.9,235.004 C360.9,292.846 313.842,339.904 256,339.904 C198.158,339.904 151.1,292.846 151.1,235.004 Z M426.566,291.383 C394.736,313.756 348.895,339.531 296.903,349.1 C343.67,332.284 377.207,287.489 377.207,235.004 C377.207,182.519 343.673,137.726 296.907,120.908 C348.763,130.454 394.484,156.118 426.238,178.394 C459.102,201.448 482.86,224.766 492.703,235.006 C482.908,245.202 459.326,268.358 426.566,291.383 Z" id="Shape"></path>
                <path d="M338.003,201.468 C336.294,197.302 331.531,195.308 327.366,197.02 C323.2,198.729 321.209,203.491 322.918,207.657 C326.481,216.342 328.288,225.544 328.288,235.004 C328.289,239.509 331.938,243.158 336.442,243.158 C340.946,243.158 344.595,239.509 344.595,235.005 C344.594,223.411 342.377,212.127 338.003,201.468 Z" id="Shape"></path>
                <path d="M318.976,172.746 C302.185,155.762 279.82,146.41 256,146.41 C251.496,146.41 247.847,150.059 247.847,154.563 C247.847,159.067 251.496,162.716 256,162.716 C275.43,162.716 293.677,170.348 307.382,184.21 C308.977,185.822 311.077,186.631 313.179,186.631 C315.25,186.631 317.322,185.846 318.911,184.275 C322.112,181.109 322.141,175.948 318.976,172.746 Z" id="Shape"></path>
                <path d="M300.061,196.824 C291.974,192.499 277.916,190.403 256,203.608 C234.085,190.405 220.025,192.498 211.939,196.824 C201.447,202.44 195.669,214.455 195.669,230.656 C195.669,260.975 245.505,298.302 251.187,302.46 C252.62,303.508 254.31,304.032 256,304.032 C257.69,304.032 259.38,303.508 260.813,302.46 C266.495,298.302 316.331,260.975 316.331,230.656 C316.331,214.455 310.554,202.44 300.061,196.824 Z M255.997,285.65 C237.247,270.976 211.975,245.991 211.975,230.656 C211.975,220.896 214.765,213.805 219.633,211.201 C221.367,210.273 223.454,209.817 225.841,209.817 C232.472,209.817 241.412,213.337 251.478,220.047 C254.217,221.873 257.784,221.873 260.522,220.047 C274.212,210.92 285.822,207.697 292.367,211.201 C297.235,213.806 300.025,220.896 300.025,230.656 C300.026,245.963 274.748,270.962 255.997,285.65 Z" id="Shape"></path>
                <path d="M256,0.745 C251.496,0.745 247.847,4.394 247.847,8.898 L247.847,65.425 C247.847,69.929 251.496,73.578 256,73.578 C260.504,73.578 264.153,69.929 264.153,65.425 L264.153,8.898 C264.153,4.394 260.504,0.745 256,0.745 Z" id="Shape"></path>
                <path d="M373.13,32.13 C369.229,29.879 364.242,31.214 361.993,35.114 L333.73,84.067 C331.479,87.966 332.815,92.953 336.714,95.204 C337.999,95.945 339.4,96.298 340.783,96.298 C343.601,96.298 346.341,94.836 347.851,92.22 L376.114,43.267 C378.365,39.368 377.029,34.382 373.13,32.13 Z" id="Shape"></path>
                <path d="M178.271,84.067 L150.008,35.114 C147.758,31.214 142.769,29.88 138.871,32.13 C134.972,34.381 133.636,39.368 135.887,43.267 L164.15,92.22 C165.66,94.835 168.4,96.298 171.218,96.298 C172.602,96.298 174.004,95.946 175.287,95.204 C179.186,92.953 180.522,87.967 178.271,84.067 Z" id="Shape"></path>
            </g>
        </g>
    </g>
</svg>