<?xml version="1.0" encoding="UTF-8" standalone="no"?>
<svg width="60px" height="60px" viewBox="0 0 60 60" version="1.1" xmlns="http://www.w3.org/2000/svg" xmlns:xlink="http://www.w3.org/1999/xlink">
    <!-- Generator: Sketch 47.1 (45422) - http://www.bohemiancoding.com/sketch -->
    <title>cube</title>
    <desc>Created with Sketch.</desc>
    <defs></defs>
    <g id="Page-1" stroke="none" stroke-width="1" fill="none" fill-rule="evenodd">
        <g id="cube" fill-rule="nonzero">
            <polygon id="Shape" fill="#FFFFFF" points="29.9999233 8.85245902 19.6721311 14.8027517 29.9999233 20.6557377 40.3278689 14.8027517"></polygon>
            <g id="Group" transform="translate(19.672131, 15.737705)" fill="#D3D7DA">
                <polygon id="Shape" points="10.2534828 5.83108929 10.2534828 17.5961721 20.4380224 11.7572938 20.4380224 0.00179745361"></polygon>
                <polygon id="Shape" points="0.0690943649 0.00179745361 0.0690943649 11.7572938 10.2534828 17.5961721 10.2534828 5.83108929"></polygon>
            </g>
            <path d="M41.2119957,14.2764005 C41.2119957,14.2764005 40.9237044,13.9927802 40.8342187,13.9047445 L40.8342187,13.9047445 L40.8342187,13.9047445 L40.8342187,13.9047445 L30.4771029,8.00816671 C30.1888116,7.82241438 29.8111884,7.82241438 29.5228971,8.00816671 L19.1656275,13.9047445 C19.0663015,13.9047445 18.8773362,14.1883647 18.7878506,14.2764005 C18.7878506,14.2764005 18.6885246,14.6480564 18.6885246,14.745773 L18.6885246,26.6171322 C18.6885246,26.9887881 18.8773362,27.2722571 19.1656275,27.4581607 L29.5228971,33.3449063 L29.5228971,33.3449063 L29.5228971,33.3449063 C29.5228971,33.3449063 29.900674,33.442623 30,33.442623 C30.099326,33.442623 30.377777,33.3449063 30.4771029,33.3449063 L30.4771029,33.3449063 L30.4771029,33.3449063 L40.8343725,27.4581607 C41.1226638,27.2724083 41.3114754,26.9887881 41.3114754,26.6171322 L41.3114754,14.745773 C41.3114754,14.6479051 41.2119957,14.2764005 41.2119957,14.2764005 Z M29.0457941,30.9196887 L20.587096,26.0597239 L20.587096,16.339643 L29.0457941,21.1996078 L29.0457941,30.9196887 Z M30,19.6057378 L21.4418221,14.745773 L29.9005203,9.8858082 L38.3592185,14.745773 L30,19.6057378 Z M39.412904,26.0597239 L30.9542059,30.9196887 L30.9542059,21.1996078 L39.412904,16.339643 L39.412904,26.0597239 Z" id="Shape" fill="#193651"></path>
            <g id="Group" transform="translate(0.983607, 12.786885)" fill="#FFFFFF">
                <path d="M57.6457513,2.69073358 C57.6457513,1.29210891 56.5283835,0.0694470712 55.1388131,0.0694470712 C53.749393,0.0694470712 52.6318749,1.09647696 52.4473002,2.50493619 L50.4067586,15.7190949 C50.2513432,14.8681792 49.7266282,14.1051692 48.9103214,13.7237399 C47.5209013,13.0684561 45.8398894,13.6259995 45.1014406,15.0344588 L41.5743819,22.1451429 C41.3898073,22.4288319 41.2050823,22.8004267 40.9234107,22.9863754 L36.2788337,26.3510027 C35.9970117,26.6346918 35.7249596,26.9085462 35.5403849,27.2899756 L32.6642975,33.1781491 L44.372912,39.0663227 L45.6750048,36.4450362 L56.450826,25.500087 C57.3836193,24.5611142 57.8402461,23.3482869 57.8402461,22.1354596 L57.6457513,2.69073358 Z" id="Shape"></path>
                <path d="M21.5968844,26.3510027 L16.9523074,22.9863754 C16.6704854,22.800578 16.4859108,22.4288319 16.3013362,22.1451429 L12.7741271,15.0343075 C12.0356783,13.6356828 10.3546665,13.0683048 8.96524641,13.7235886 C8.16847924,14.0953346 7.64376425,14.8483588 7.47857898,15.6797567 L5.51574509,2.49510164 C5.33117047,1.09647696 4.21365229,0.0596125186 2.82423223,0.0596125186 C1.43481218,0.0596125186 0.317293999,1.28212305 0.317293999,2.69073358 L0.132719375,22.1451429 C0.132719375,23.3579701 0.599116002,24.580632 1.52213943,25.5097702 L12.2104831,36.4547195 L13.5125759,39.076006 L25.2211905,33.0899408 L22.345103,27.2898243 C22.1507585,26.9085462 21.8689365,26.6346918 21.5968844,26.3510027 Z" id="Shape"></path>
            </g>
            <polygon id="Shape" fill="#2EA2DB" points="31.4498491 44.2622951 29.5081967 48.0005037 27.5665444 44.2622951 12.7868852 51.5575623 16.1099887 58.0327869 42.9065542 58.0327869 46.2295082 51.5575623"></polygon>
            <g id="Group" fill="#193651">
                <path d="M58.2601515,38.6703046 C59.2886364,37.636599 59.9448485,36.1303553 59.9448485,34.6241117 L59.7587879,14.9447208 C59.7587879,12.9659391 58.1622727,11.371066 56.2031818,11.371066 C54.4204545,11.371066 52.8337879,12.7787817 52.549697,14.5705584 L50.9531818,25.4882741 C50.7671212,25.3898985 47.7698485,23.2239594 45.4287879,26.8959898 L41.8731818,34.0530457 C41.775303,34.2400508 41.5890909,34.4272081 41.5009091,34.6142132 L36.9071212,38.0007107 L36.8092424,38.0990863 C36.4369697,38.4732487 36.1530303,38.8571574 35.8689394,39.319797 L33.3418182,44.311066 L31.4710606,43.3659898 L29.9724242,46.5753807 L28.4737879,43.4645178 L26.6030303,44.4095939 L24.0759091,39.4183249 C23.8898485,38.9457868 23.5175758,38.5716244 23.1356061,38.1976142 L18.4536364,34.7125888 C18.2675758,34.5255838 18.1695455,34.3384264 18.0813636,34.1514213 L14.5257576,26.9943655 C12.3709091,23.5093401 9.08954545,25.3011168 9.00136364,25.5866497 L7.3069697,14.6591878 C7.02287879,12.8674112 5.52424242,11.4596954 3.65348485,11.4596954 C1.68469697,11.4596954 0.186060606,13.0643147 0.186060606,15.0333503 L0,34.525736 C0,36.0319797 0.558333333,37.5382234 1.68469697,38.5719289 L12.4590909,49.4896447 L13.3015152,51.094264 L11.9009091,51.852335 L15.9266667,59.8560914 L44.3025758,59.8560914 L48.3283333,51.852335 L46.9277273,51.094264 L47.7701515,49.4896447 L58.2601515,38.6703046 Z M2.99727273,37.351066 C2.25287879,36.6028934 1.87090909,35.5592893 1.87090909,34.6241117 L2.0569697,15.0430964 C2.0569697,14.0980203 2.81121212,13.3498477 3.74166667,13.3498477 C4.58409091,13.3498477 5.42636364,14.0093909 5.52439394,14.954467 L7.39515152,28.1364975 C7.29727273,28.8945685 7.39515152,29.7411168 7.76742424,30.4008122 L10.6666667,36.2386294 C10.8527273,36.5241624 10.8527273,36.8981726 10.7645455,37.1837056 C10.725303,37.3018782 10.6666667,37.4200508 10.5980303,37.5184264 C10.4021212,37.8039594 10.3628788,38.1583249 10.519697,38.4635025 L10.5490909,38.5225888 C10.8428788,39.1230457 11.6754545,39.2215736 12.0771212,38.6899492 C12.3024242,38.4044162 12.4590909,38.0795939 12.5472727,37.7448731 C12.8313636,36.986802 12.7333333,36.1402538 12.3612121,35.3919289 L9.4619697,29.6524873 L9.27590909,28.1462437 C9.37378788,27.5850761 9.74606061,27.2011675 10.2162121,26.925533 C11.1565152,26.4529949 12.2731818,26.925533 12.7433333,27.8706091 L16.2989394,35.027665 C16.485,35.500203 16.7690909,35.8743655 17.1413636,36.1597462 L21.9212121,39.6447716 C22.1072727,39.8317766 22.2934848,40.018934 22.3913636,40.3043147 L24.9184848,45.2955838 L14.8884848,50.3459391 L14.0460606,48.6526904 L2.99727273,37.351066 Z M42.9898485,58.0643147 L16.955,58.0643147 L14.33,52.7974112 L27.6315152,46.0145178 L29.9725758,50.7202538 L32.3136364,46.0145178 L45.6151515,52.6990355 L42.9898485,58.0643147 Z M46.0851515,48.3673096 L45.0566667,50.3361929 L35.0365152,45.2562944 L37.5636364,40.2650254 C37.6615152,39.9794924 37.8477273,39.7924873 38.0337879,39.6054822 L42.6275758,36.2189848 L42.7254545,36.1206091 C43.0977273,35.8350761 43.3816667,35.3724365 43.5678788,34.9885279 L47.1136364,27.8413706 C47.5837879,26.8962944 48.7101515,26.522132 49.6407576,26.8962944 C50.1109091,27.1818274 50.4831818,27.5558376 50.5810606,28.1170051 L50.395,29.6232487 L47.4957576,35.3626904 C46.9569697,36.4356853 47.0940909,37.6958376 47.7601515,38.6113706 C48.1618182,39.1725381 49.0139394,39.1035533 49.3175758,38.4834518 L49.3371212,38.434264 C49.4937879,38.1191878 49.4448485,37.7451777 49.2392424,37.4596447 C48.9845455,37.1052792 48.9160606,36.6129442 49.1804545,36.2093909 L52.079697,30.3715736 C52.4519697,29.623401 52.5498485,28.8653299 52.4519697,28.1171574 L54.3227273,14.8466497 C54.4206061,13.9015736 55.1651515,13.2420305 56.1054545,13.2420305 C57.0457576,13.2420305 57.7019697,14.0001015 57.7901515,14.9352792 L58.0742424,34.6146701 C58.0742424,35.6483756 57.7019697,36.5934518 56.9478788,37.3416244 L46.0851515,48.3673096 Z" id="Shape"></path>
                <rect id="Rectangle-path" x="21.6369697" y="53.3486802" width="1.87075758" height="1.88025381"></rect>
                <rect id="Rectangle-path" x="29.0321212" y="53.3486802" width="1.87075758" height="1.88025381"></rect>
                <rect id="Rectangle-path" x="36.4371212" y="53.3486802" width="1.87075758" height="1.88025381"></rect>
                <rect id="Rectangle-path" x="29.0321212" y="0.640507614" width="1.87075758" height="5.55243655"></rect>
                <rect id="Rectangle-path" transform="translate(17.928496, 3.490112) rotate(48.798983) translate(-17.928496, -3.490112) " x="14.2750269" y="2.54998927" width="7.30693846" height="1.88024577"></rect>
                <rect id="Rectangle-path" transform="translate(42.015482, 3.469529) rotate(131.217188) translate(-42.015482, -3.469529) " x="38.3621565" y="2.52942417" width="7.30665031" height="1.88021061"></rect>
            </g>
        </g>
    </g>
</svg>
