<?xml version="1.0" encoding="UTF-8"?>
<svg width="512px" height="504px" viewBox="0 0 512 504" version="1.1" xmlns="http://www.w3.org/2000/svg" xmlns:xlink="http://www.w3.org/1999/xlink">
    <!-- Generator: Sketch 44.1 (41455) - http://www.bohemiancoding.com/sketch -->
    <title>html</title>
    <desc>Created with Sketch.</desc>
    <defs></defs>
    <g id="Page-1" stroke="none" stroke-width="1" fill="none" fill-rule="evenodd">
        <g id="html" fill-rule="nonzero" fill="#FFFFFF">
            <path d="M503.983,0.276 L8.017,0.276 C3.589,0.276 0,3.865 0,8.292 L0,110.906 L0,495.708 C0,500.135 3.589,503.725 8.017,503.725 L503.984,503.725 C508.412,503.725 512.001,500.136 512.001,495.708 L512.001,110.906 L512.001,8.292 C512,3.865 508.412,0.276 503.983,0.276 Z M495.967,487.691 L16.033,487.691 L16.033,118.923 L495.966,118.923 L495.966,487.691 L495.967,487.691 Z M495.967,102.889 L16.033,102.889 L16.033,16.309 L495.966,16.309 L495.966,102.889 L495.967,102.889 Z" id="Shape"></path>
            <path d="M427.023,34.48 L332.96,34.48 C328.532,34.48 324.943,38.069 324.943,42.497 C324.943,46.924 328.531,50.514 332.96,50.514 L427.023,50.514 C431.451,50.514 435.04,46.925 435.04,42.497 C435.04,38.07 431.451,34.48 427.023,34.48 Z" id="Shape"></path>
            <path d="M469.779,34.48 L452.677,34.48 C448.249,34.48 444.66,38.069 444.66,42.497 C444.66,46.924 448.248,50.514 452.677,50.514 L469.779,50.514 C474.207,50.514 477.796,46.925 477.796,42.497 C477.795,38.07 474.207,34.48 469.779,34.48 Z" id="Shape"></path>
            <path d="M264.551,25.929 C245.985,25.929 230.881,41.034 230.881,59.599 C230.881,78.164 245.986,93.269 264.551,93.269 C283.116,93.269 298.221,78.165 298.221,59.599 C298.221,41.033 283.117,25.929 264.551,25.929 Z M264.551,77.236 C254.826,77.236 246.914,69.324 246.914,59.599 C246.914,49.874 254.826,41.962 264.551,41.962 C274.276,41.962 282.188,49.874 282.188,59.599 C282.188,69.324 274.276,77.236 264.551,77.236 Z" id="Shape"></path>
            <path d="M170.489,25.929 C151.923,25.929 136.819,41.034 136.819,59.599 C136.819,78.164 151.924,93.269 170.489,93.269 C189.054,93.269 204.159,78.165 204.159,59.599 C204.159,41.033 189.054,25.929 170.489,25.929 Z M170.489,77.236 C160.764,77.236 152.852,69.324 152.852,59.599 C152.852,49.874 160.764,41.962 170.489,41.962 C180.214,41.962 188.126,49.874 188.126,59.599 C188.126,69.324 180.213,77.236 170.489,77.236 Z" id="Shape"></path>
            <path d="M76.426,25.929 C57.86,25.929 42.756,41.034 42.756,59.599 C42.756,78.164 57.861,93.269 76.426,93.269 C94.991,93.269 110.096,78.165 110.096,59.599 C110.096,41.033 94.992,25.929 76.426,25.929 Z M76.426,77.236 C66.701,77.236 58.789,69.324 58.789,59.599 C58.789,49.874 66.701,41.962 76.426,41.962 C86.151,41.962 94.063,49.874 94.063,59.599 C94.063,69.324 86.151,77.236 76.426,77.236 Z" id="Shape"></path>
            <path d="M168.877,228.063 C169.051,221.641 166.714,215.536 162.295,210.872 C157.876,206.208 151.906,203.545 145.485,203.371 C139.082,203.196 132.959,205.535 128.295,209.953 L47.059,286.913 C42.193,291.523 39.457,298.011 39.552,304.714 C39.647,311.417 42.567,317.826 47.563,322.295 L128.8,394.981 C133.217,398.932 138.909,401.107 144.828,401.107 C144.829,401.107 144.83,401.107 144.831,401.107 C151.668,401.107 158.202,398.187 162.76,393.093 C171.602,383.21 170.756,367.976 160.873,359.133 L99.104,303.866 L161.378,244.871 C166.039,240.454 168.703,234.484 168.877,228.063 Z M150.348,233.232 L81.754,298.215 C80.127,299.756 79.22,301.908 79.252,304.15 C79.284,306.39 80.252,308.515 81.922,310.01 L150.18,371.083 C153.474,374.03 153.757,379.108 150.81,382.403 C149.269,384.126 147.145,385.075 144.828,385.075 C142.857,385.075 140.961,384.35 139.489,383.032 L58.253,310.347 C56.588,308.857 55.614,306.721 55.582,304.487 C55.551,302.253 56.463,300.09 58.084,298.554 L139.32,221.594 C140.821,220.172 142.769,219.396 144.828,219.396 C144.902,219.396 144.977,219.397 145.05,219.399 C147.191,219.457 149.18,220.345 150.653,221.899 C152.126,223.453 152.905,225.488 152.847,227.629 C152.791,229.77 151.903,231.76 150.348,233.232 Z" id="Shape"></path>
            <path d="M464.942,286.914 L383.706,209.954 C374.08,200.835 358.828,201.245 349.705,210.873 C340.586,220.499 340.998,235.752 350.624,244.872 L412.898,303.867 L351.129,359.134 C341.247,367.977 340.4,383.21 349.242,393.095 C353.8,398.187 360.334,401.108 367.169,401.108 C367.17,401.108 367.171,401.108 367.172,401.108 C373.093,401.108 378.786,398.932 383.201,394.981 L464.437,322.296 C469.434,317.825 472.354,311.416 472.447,304.713 C472.543,298.011 469.807,291.523 464.942,286.914 Z M453.746,310.348 L372.51,383.033 C371.038,384.35 369.143,385.076 367.171,385.076 L367.17,385.076 C364.856,385.076 362.732,384.127 361.191,382.405 C358.243,379.111 358.525,374.032 361.819,371.084 L430.076,310.011 C431.747,308.517 432.715,306.392 432.746,304.151 C432.778,301.91 431.871,299.758 430.244,298.216 L361.65,233.233 C358.441,230.193 358.303,225.108 361.343,221.9 C362.917,220.239 365.039,219.401 367.165,219.401 C369.145,219.401 371.13,220.128 372.676,221.594 L453.912,298.554 C455.535,300.09 456.445,302.253 456.414,304.487 L456.414,304.489 L456.415,304.489 C456.385,306.722 455.413,308.858 453.746,310.348 Z" id="Shape"></path>
            <path d="M317.703,229.713 C316.033,223.509 312.047,218.327 306.481,215.123 C306.481,215.122 306.48,215.122 306.48,215.122 C294.985,208.508 280.254,212.475 273.638,223.965 L192.402,365.059 C185.785,376.551 189.752,391.284 201.245,397.902 C204.893,400.001 209.037,401.112 213.228,401.112 C221.813,401.112 229.805,396.493 234.085,389.059 L315.321,247.966 C318.526,242.398 319.373,235.915 317.703,229.713 Z M301.427,239.964 L220.192,381.058 C218.765,383.537 216.096,385.077 213.229,385.077 C211.82,385.077 210.48,384.717 209.244,384.006 C205.413,381.801 204.091,376.889 206.296,373.058 L287.533,231.964 C289.014,229.391 291.717,227.95 294.494,227.95 C295.85,227.95 297.224,228.294 298.481,229.018 C300.337,230.086 301.665,231.813 302.221,233.88 C302.778,235.947 302.496,238.108 301.427,239.964 Z" id="Shape"></path>
        </g>
    </g>
</svg>