<?xml version="1.0" encoding="UTF-8" standalone="no"?>
<svg width="45px" height="45px" viewBox="0 0 45 45" version="1.1" xmlns="http://www.w3.org/2000/svg" xmlns:xlink="http://www.w3.org/1999/xlink">
    <!-- Generator: Sketch 47.1 (45422) - http://www.bohemiancoding.com/sketch -->
    <title>Group 2</title>
    <desc>Created with Sketch.</desc>
    <defs></defs>
    <g id="Symbols" stroke="none" stroke-width="1" fill="none" fill-rule="evenodd">
        <g id="Group-2" fill-rule="nonzero" fill="#FFFFFF">
            <g id="loupe">
                <g id="Group">
                    <rect id="Rectangle-path" transform="translate(12.000000, 33.000000) rotate(-135.000000) translate(-12.000000, -33.000000) " x="11" y="32" width="2" height="2"></rect>
                    <rect id="Rectangle-path" transform="translate(9.000000, 36.000000) rotate(45.000000) translate(-9.000000, -36.000000) " x="8" y="35" width="2" height="2"></rect>
                    <rect id="Rectangle-path" transform="translate(6.000000, 40.000000) rotate(45.004051) translate(-6.000000, -40.000000) " x="5" y="39" width="2" height="2"></rect>
                    <path d="M28.8919216,0 C19.9935557,0 12.7839622,7.22787555 12.7839622,16.1322879 C12.7839622,19.7057909 13.943957,23.0146195 15.9115416,25.6910501 L13.5547557,28.0513956 L12.4314438,26.9263871 L0.633204502,38.602886 C-0.211068167,39.4484338 -0.211068167,40.7793129 0.633204502,41.6249744 L3.29833051,44.3676021 C3.71683263,44.7205393 4.2087004,45 4.84014458,45 C5.40549154,45 5.8973593,44.7867363 6.31586143,44.3676021 L18.1803115,32.6250199 L16.9175367,31.3603379 L19.2449082,29.0589101 C21.9320666,31.0735978 25.272588,32.2721965 28.8920352,32.2721965 C37.7904011,32.2721965 44.9999945,25.0443209 44.9999945,16.1399086 C45.0072629,7.22798929 37.7902875,0 28.8919216,0 Z M5.33928076,43.3822671 C5.19981791,43.5219406 4.98687585,43.5955308 4.847413,43.5955308 C4.63447094,43.5955308 4.49500809,43.5220543 4.35554524,43.3822671 L1.69041923,40.6396394 C1.41137996,40.3601786 1.41137996,39.933765 1.69041923,39.6543043 L12.5710202,28.8969434 L16.1537845,32.6249062 L5.33928076,43.3822671 Z M15.940956,30.3750028 L14.604702,29.0367306 L16.8366755,26.8382381 C17.2551776,27.3087831 17.6957121,27.7573761 18.1655475,28.1765103 L15.940956,30.3750028 Z M28.8919216,30.8014164 C20.8765461,30.8014164 14.3622149,24.2699087 14.3622149,16.2497648 C14.3622149,8.22228336 20.8838727,1.69811321 28.8919216,1.69811321 C36.9072971,1.69811321 43.4216284,8.22962099 43.4216284,16.2497648 C43.4289549,24.2699087 36.9072971,30.8014164 28.8919216,30.8014164 Z" id="Shape"></path>
                    <path d="M29.2309059,22.4146341 C33.5911966,22.4146341 37.1406264,20.7873519 39.9374737,17.5014572 C37.1215998,14.2149455 33.4987901,12.5853659 29.0093001,12.5853659 C24.5301605,12.5853659 20.9137097,14.2074402 18.1006153,17.4787525 C21.1677844,20.7795151 24.8619787,22.4146341 29.2309059,22.4146341 Z M16.4047386,17.0128397 C19.5818703,13.0147772 23.8063195,11 29.0093001,11 C34.2122806,11 38.4367298,13.0147772 41.6138615,17.0128397 L42,17.4987516 L41.6150954,17.9856035 C38.4546218,21.9831725 34.3041838,24 29.2309059,24 C24.1680679,24 19.8817226,21.9928716 16.4268727,18.0138017 L16,17.5221577 L16.4047386,17.0128397 Z" id="Line"></path>
                    <path d="M29,22 C26.2385763,22 24,19.7614237 24,17 C24,14.2385763 26.2385763,12 29,12 C31.7614237,12 34,14.2385763 34,17 C34,19.7614237 31.7614237,22 29,22 Z M29,20.2758621 C30.8092087,20.2758621 32.2758621,18.8092087 32.2758621,17 C32.2758621,15.1907913 30.8092087,13.7241379 29,13.7241379 C27.1907913,13.7241379 25.7241379,15.1907913 25.7241379,17 C25.7241379,18.8092087 27.1907913,20.2758621 29,20.2758621 Z" id="Oval-2"></path>
                </g>
            </g>
        </g>
    </g>
</svg>
