<?xml version="1.0" encoding="UTF-8" standalone="no"?>
<svg width="60px" height="60px" viewBox="0 0 60 60" version="1.1" xmlns="http://www.w3.org/2000/svg" xmlns:xlink="http://www.w3.org/1999/xlink">
    <!-- Generator: Sketch 47.1 (45422) - http://www.bohemiancoding.com/sketch -->
    <title>loupe</title>
    <desc>Created with Sketch.</desc>
    <defs></defs>
    <g id="Page-1" stroke="none" stroke-width="1" fill="none" fill-rule="evenodd">
        <g id="loupe" fill-rule="nonzero">
            <circle id="Oval" fill="#F16051" cx="27.4137931" cy="32.5862069" r="27.4137931"></circle>
            <path d="M1.60045097,54.7837756 L5.12363477,58.4048532 C5.87099953,59.1524053 7.07446999,59.1524053 7.72469835,58.4048532 L22.7586207,43.5515722 L16.537387,37.2413793 L1.50346471,52.0946603 C0.86284489,52.8324513 0.86284489,54.0459846 1.60045097,54.7837756 Z" id="SVGCleanerId_0" fill="#D3D7DA"></path>
            <circle id="Oval" fill="#FFFFFF" cx="38.2758621" cy="21.7241379" r="20.6896552"></circle>
            <ellipse id="Oval" fill="#E1E6E9" cx="38.2758621" cy="22.2413793" rx="16.5517241" ry="17.0689655"></ellipse>
            <path d="M21.7241379,21.7241942 C30.9065827,10.6896364 45.6451415,10.6896364 54.8275862,21.7241942 L54.8275862,21.7241942 L54.8275862,21.7241942 C45.6451415,32.7586019 30.9067327,32.7586019 21.7241379,21.7241942 L21.7241379,21.7241942 L21.7241379,21.7241942 Z" id="Shape" fill="#FFFFFF"></path>
            <path d="M28.9655172,21.7241379 C28.9655172,18.3006543 30.9003157,15.4381523 33.6628457,13.8617193 C36.4255246,13.3104614 39.1880547,13.3104614 41.8543957,13.8617193 C44.6170746,15.3413643 46.5517241,18.3006543 46.5517241,21.7241379 C46.5517241,25.1476215 44.6169257,28.0101235 41.8543957,29.5865566 C39.0917168,30.1378145 36.3291867,30.1378145 33.6628457,29.5865566 C30.8039778,28.0101235 28.9655172,25.0508335 28.9655172,21.7241379 Z" id="SVGCleanerId_1" fill="#2EA2DB"></path>
            <circle id="Oval" fill="#193651" cx="38.2758621" cy="21.7241379" r="4.13793103"></circle>
            <circle id="Oval" fill="#F16051" cx="27.4137931" cy="32.5862069" r="27.4137931"></circle>
            <path d="M1.60045097,54.7837756 L5.12363477,58.4048532 C5.87099953,59.1524053 7.07446999,59.1524053 7.72469835,58.4048532 L22.7586207,43.5515722 L16.537387,37.2413793 L1.50346471,52.0946603 C0.86284489,52.8324513 0.86284489,54.0459846 1.60045097,54.7837756 Z" id="SVGCleanerId_0_1_" fill="#D3D7DA"></path>
            <g id="Group" transform="translate(17.586207, 1.034483)" fill="#FFFFFF">
                <path d="M4.24878002,34.1189392 L0.294430732,38.0832742 L3.40276717,41.19946 L7.35711646,37.3338215 C6.12765893,36.3772129 4.99634498,35.3417386 4.24878002,34.1189392 Z" id="Shape"></path>
                <ellipse id="Oval" cx="20.705556" cy="20.7270287" rx="20.5979784" ry="20.6499935"></ellipse>
            </g>
            <ellipse id="Oval" fill="#E1E6E9" cx="38.2758621" cy="22.2413793" rx="16.5517241" ry="17.0689655"></ellipse>
            <path d="M21.7241379,21.7241379 C30.9065827,32.7586207 45.6451415,32.7586207 54.8275862,21.7241379 C45.6451415,10.6896552 30.9067327,10.6896552 21.7241379,21.7241379 Z" id="Shape" fill="#FFFFFF"></path>
            <path d="M28.9655172,21.7241379 C28.9655172,18.3006543 30.9003157,15.4381523 33.6628457,13.8617193 C36.4255246,13.3104614 39.1880547,13.3104614 41.8543957,13.8617193 C44.6170746,15.3413643 46.5517241,18.3006543 46.5517241,21.7241379 C46.5517241,25.1476215 44.6169257,28.0101235 41.8543957,29.5865566 C39.0917168,30.1378145 36.3291867,30.1378145 33.6628457,29.5865566 C30.8039778,28.0101235 28.9655172,25.0508335 28.9655172,21.7241379 Z" id="SVGCleanerId_1_1_" fill="#2EA2DB"></path>
            <g id="Group" fill="#193651">
                <ellipse id="Oval" cx="38.3995466" cy="21.4962121" rx="4.20120907" ry="4.21181818"></ellipse>
                <rect id="Rectangle-path" transform="translate(15.426360, 44.511862) rotate(-135.000000) translate(-15.426360, -44.511862) " x="14.4933466" y="43.5764917" width="1.86602744" height="1.87073964"></rect>
                <rect id="Rectangle-path" transform="translate(11.506434, 48.469491) rotate(45.000000) translate(-11.506434, -48.469491) " x="10.5734205" y="47.5341213" width="1.86602744" height="1.87073964"></rect>
                <rect id="Rectangle-path" transform="translate(7.587702, 52.425715) rotate(45.004051) translate(-7.587702, -52.425715) " x="6.65454723" y="51.4902034" width="1.86631054" height="1.87102345"></rect>
                <path d="M38.4483627,0.0453030303 C26.6067506,0.0453030303 17.0124937,9.67363636 17.0124937,21.535303 C17.0124937,26.2956061 18.5561713,30.7033333 21.1745592,34.2686364 L18.0382368,37.4128788 L16.5433753,35.9142424 L0.842720403,51.4686364 C-0.280806045,52.595 -0.280806045,54.3678788 0.842720403,55.4943939 L4.38937028,59.1478788 C4.94629723,59.6180303 5.60085642,59.990303 6.44115869,59.990303 C7.19350126,59.990303 7.84806045,59.7062121 8.40498741,59.1478788 L24.1937531,43.5054545 L22.5132997,41.8207576 L25.6104786,38.755 C29.1864484,41.4387879 33.6318892,43.0354545 38.4485139,43.0354545 C50.2901259,43.0354545 59.8843829,33.4071212 59.8843829,21.5454545 C59.8940554,9.67378788 50.2899748,0.0453030303 38.4483627,0.0453030303 Z M7.10539043,57.835303 C6.91979849,58.0213636 6.63642317,58.1193939 6.45083123,58.1193939 C6.16745592,58.1193939 5.98186398,58.0215152 5.79627204,57.835303 L2.24962217,54.1818182 C1.87828715,53.8095455 1.87828715,53.2415152 2.24962217,52.8692424 L16.7291184,38.5392424 L21.496927,43.505303 L7.10539043,57.835303 Z M21.2137028,40.5081818 L19.435466,38.7254545 L22.4056927,35.7968182 C22.9626196,36.4236364 23.5488665,37.0212121 24.1741058,37.5795455 L21.2137028,40.5081818 Z M38.4483627,41.0762121 C27.7011083,41.0762121 18.9664987,32.309697 18.9664987,21.5451515 C18.9664987,10.7707576 27.710932,2.01409091 38.4483627,2.01409091 C49.1956171,2.01409091 57.9302267,10.7806061 57.9302267,21.5451515 C57.9400504,32.309697 49.1956171,41.0762121 38.4483627,41.0762121 Z" id="Shape"></path>
            </g>
        </g>
    </g>
</svg>
