<?xml version="1.0" encoding="UTF-8" standalone="no"?>
<svg width="41px" height="41px" viewBox="0 0 41 41" version="1.1" xmlns="http://www.w3.org/2000/svg" xmlns:xlink="http://www.w3.org/1999/xlink">
    <!-- Generator: Sketch 47.1 (45422) - http://www.bohemiancoding.com/sketch -->
    <title>Shape</title>
    <desc>Created with Sketch.</desc>
    <defs></defs>
    <g id="Symbols" stroke="none" stroke-width="1" fill="none" fill-rule="evenodd">
        <path d="M40.8131801,14.5747345 L40.8131801,3.13564144 C40.8131801,2.62754756 40.5597199,2.04592331 40.1129408,1.73163523 C39.3460612,1.08982155 38.1989397,1.02963213 37.3720219,1.53772601 C36.9918832,0.895912329 36.2850418,0.514816065 35.3980858,0.514816065 C34.8845632,0.514816065 34.4444895,0.641813681 34.0576454,0.895912329 C33.7375449,0.32090684 33.0373056,0 32.270426,0 C31.5035464,0 30.8033071,0.32090684 30.4231684,0.895912329 C30.0430296,0.641813681 29.5962506,0.514816065 29.082728,0.514816065 C27.9957479,0.514816065 27.1087919,1.21681917 26.9153698,2.1127315 L19.5129288,2.1127315 L19.5129288,3.06872983 L18.4925889,3.06872983 L14.6047548,0.000103418253 L3.12765979,0.000103418253 C2.04067964,0.000103418253 1.21365868,1.02301336 1.21365868,2.23983253 C1.21365868,2.68773699 1.3403372,3.06883325 1.53375922,3.4566517 C0.893661293,3.83764455 0.446779067,4.54626642 0.446779067,5.37537056 C0.446779067,5.88346444 0.573457593,6.33136889 0.826917803,6.71918734 C0.320100542,7.09356142 0,7.80218329 0,8.56437582 C0,9.33318711 0.320100542,10.0351902 0.893661293,10.4162865 C0.640201083,10.7973827 0.513522558,11.2452872 0.513522558,11.7601033 C0.513522558,12.8498214 1.21376183,13.7390115 2.10742313,13.9329208 L2.10742313,21.3472856 L3.06101946,21.3472856 L3.06101946,22.3701956 L0,26.3414565 L0,37.7872717 C0,38.8769898 1.02033982,39.76618 2.23410165,39.76618 C2.68088072,39.76618 3.06101946,39.6391823 3.44786349,39.4452731 C3.82800222,40.0870868 4.53484364,40.4681831 5.42179964,40.4681831 C5.93532219,40.4681831 6.37539596,40.3411854 6.76224,40.0870868 C7.14237873,40.5951807 7.84922015,40.9829991 8.60949762,40.9829991 C9.36977509,40.9829991 10.0766165,40.6620923 10.4567552,40.0870868 C10.836894,40.3411854 11.283673,40.4681831 11.7971956,40.4681831 C12.8841758,40.4681831 13.7711317,39.76618 13.9645538,38.8702676 L21.3602895,38.8702676 L21.3602895,37.9142693 L22.3806294,37.9142693 L26.3952452,40.9160875 L37.812302,40.9160875 C38.8992822,40.9160875 39.7862382,39.8931776 39.7862382,38.6763584 C39.7862382,38.228454 39.6595596,37.8473577 39.4661376,37.4595392 C40.1063387,37.078443 40.4864774,36.3698211 40.4864774,35.480631 C40.4864774,34.9725371 40.3597989,34.5246326 40.1063387,34.1368142 C40.613156,33.7557179 41,33.047096 41,32.2849035 C41,31.5160922 40.6798995,30.8140891 40.1730822,30.4329928 C40.4265424,30.0518966 40.5532209,29.6039921 40.5532209,29.0891761 C40.5532209,27.9994579 39.8529817,27.1102678 38.9593204,26.9163586 L38.9593204,19.5019937 L38.005724,19.5019937 L38.005724,18.4790838 L40.8131801,14.5747345 Z M20.8534723,3.32282848 L26.9087677,3.32282848 L26.9087677,7.86237271 C26.6553075,7.7353751 26.2685666,7.66846349 25.9551714,7.66846349 C24.7414095,7.66846349 23.7210697,8.56437582 23.7210697,9.64737177 L23.7210697,12.5890006 L20.8534723,12.5890006 L20.8534723,3.32282848 Z M2.42081837,12.6560156 C2.04067964,12.6560156 1.7205791,12.2081111 1.7205791,11.7000173 C1.7205791,11.1919234 2.04067964,10.7440189 2.42081837,10.7440189 L2.42081837,10.7440189 L6.62885617,10.7440189 L6.62885617,9.46690692 L2.42081837,9.46690692 L1.97403931,9.46690692 C1.59390057,9.46690692 1.27380003,9.01900246 1.27380003,8.51090858 C1.27380003,7.99609252 1.59390057,7.55491025 1.97403931,7.55491025 L6.62885617,7.55491025 L6.62885617,6.27790165 L2.42081837,6.27790165 L2.42081837,6.27790165 C2.04067964,6.27790165 1.7205791,5.8299972 1.7205791,5.32190332 C1.7205791,4.87399886 2.04067964,4.4929026 2.42081837,4.4929026 L6.62885617,4.4929026 L6.62885617,3.21589401 L3.12765979,3.21589401 C2.80755925,3.21589401 2.48745871,2.76798955 2.48745871,2.25989567 C2.48745871,1.75180179 2.80755925,1.30389734 3.12765979,1.30389734 L14.0978344,1.30389734 L18.1124502,4.30571556 L19.5129288,4.30571556 L19.5129288,11.9807978 L18.0458099,11.9807978 L14.5380114,15.791657 L9.62973428,15.791657 C9.24959554,15.791657 8.929495,15.3437526 8.929495,14.8356587 C8.929495,14.3275648 9.24959554,13.8796604 9.62973428,13.8796604 L9.62973428,13.8796604 L12.1772312,13.8796604 L12.1772312,12.6024449 L9.62302898,12.6024449 L2.42081837,12.6024449 L2.42081837,12.6560156 Z M9.62973428,17.1353704 L12.5639721,17.1353704 L12.5639721,20.010191 L3.31437651,20.010191 L3.31437651,13.939643 L7.84251485,13.939643 C7.71583633,14.1937416 7.64909284,14.5814566 7.64909284,14.8956413 C7.71583633,16.1124605 8.54275413,17.1353704 9.62973428,17.1353704 Z M12.6241134,28.6412716 L12.6241134,38.4223632 C12.6241134,38.8034594 12.1773343,39.1243663 11.6705171,39.1243663 C11.1636998,39.1243663 10.7169207,38.8034594 10.7169207,38.4223632 L10.7169207,34.2037258 L9.44301756,34.2037258 L9.44301756,38.8702676 C9.44301756,39.2513639 8.99623849,39.5722707 8.48942123,39.5722707 C7.98260397,39.5722707 7.5358249,39.2513639 7.5358249,38.8702676 L7.5358249,34.2037258 L6.24871744,34.2037258 L6.24871744,38.4223632 C6.24871744,38.8034594 5.80193837,39.1243663 5.29512111,39.1243663 C4.78830385,39.1243663 4.33481949,38.8034594 4.33481949,38.4223632 L4.33481949,34.2037258 L3.18769798,34.2037258 L3.18769798,37.6535519 C3.18769798,38.0346481 2.74091891,38.355555 2.23410165,38.355555 C1.72728439,38.355555 1.28050533,38.0346481 1.28050533,37.6535519 L1.28050533,26.7225528 L4.27478129,22.6978246 L4.27478129,21.2938184 L11.9305794,21.2938184 L11.9305794,22.7646328 L15.7584785,26.2812671 L15.7584785,31.2019076 C15.7584785,31.5830038 15.3116994,31.9039107 14.8048822,31.9039107 C14.2980649,31.9039107 13.8512858,31.5830038 13.8512858,31.2019076 L13.8512858,28.6412716 L12.6241134,28.6412716 Z M19.959811,37.5933625 L13.9045156,37.5933625 L13.9045156,33.0538182 C14.1579758,33.1808158 14.5447167,33.2477274 14.8581119,33.2477274 C16.0718737,33.2477274 17.0922136,32.3518151 17.0922136,31.2688192 L17.0922136,28.3271904 L19.959811,28.3271904 L19.959811,37.5933625 L19.959811,37.5933625 Z M17.0922136,26.976548 L17.0922136,25.7597288 L13.2643145,22.2430945 L13.2643145,21.2870962 L13.9045156,21.2870962 L13.9045156,17.1286482 L15.1182774,17.1286482 L18.6260759,13.2911071 L19.5796723,13.2911071 L19.5796723,13.9329208 L23.7276719,13.9329208 L23.7276719,15.1497399 L27.5555709,18.6663742 L27.5555709,19.6223726 L26.9153698,19.6223726 L26.9153698,23.7808205 L25.701608,23.7808205 L22.1938095,27.6183617 L21.2402132,27.6183617 L21.2402132,26.976548 L17.0922136,26.976548 L17.0922136,26.976548 Z M38.3924649,28.2601753 C38.7726036,28.2601753 39.0927042,28.7080798 39.0927042,29.2161737 C39.0927042,29.4702723 39.0260639,29.7242676 38.839244,29.9181768 C38.7726036,29.984985 38.5857838,30.1722754 38.3924649,30.1722754 L34.1844271,30.1722754 L34.1844271,31.4491806 L38.839244,31.4491806 C39.2193827,31.4491806 39.5394833,31.8970851 39.5394833,32.4051789 C39.5394833,32.9132728 39.2193827,33.3611773 38.839244,33.3611773 L34.1844271,33.3611773 L34.1844271,34.6380824 L38.3924649,34.6380824 C38.7726036,34.6380824 39.0927042,35.0859869 39.0927042,35.5940808 C39.0927042,36.1021747 38.7726036,36.5500791 38.3924649,36.5500791 L34.1844271,36.5500791 L34.1844271,37.8269843 L37.6255853,37.8269843 C38.005724,37.8269843 38.3258246,38.2748887 38.3258246,38.7829826 C38.3258246,39.2910765 38.005724,39.738981 37.6255853,39.738981 L26.6553075,39.738981 L22.6406917,36.7371627 L21.2402132,36.7371627 L21.2402132,29.0888658 L22.707332,29.0888658 L26.2151306,25.2513247 L31.1234076,25.2513247 C31.5035464,25.2513247 31.8236469,25.6992291 31.8236469,26.207323 C31.8236469,26.7154169 31.5035464,27.1633213 31.1234076,27.1633213 L28.5692055,27.1633213 L28.5692055,28.2530395 L38.3923617,28.2530395 L38.3923617,28.2601753 L38.3924649,28.2601753 Z M31.1834458,23.7808205 L28.2492081,23.7808205 L28.2492081,20.9059999 L37.4989068,20.9059999 L37.4989068,26.976548 L32.9707684,26.976548 C33.097447,26.7224493 33.1641904,26.3347343 33.1641904,26.0205496 C33.0973438,24.8037305 32.270426,23.7808205 31.1834458,23.7808205 Z M36.538502,18.1582804 L36.538502,19.5622866 L28.889306,19.5622866 L28.889306,18.0914722 L25.0614069,14.5748379 L25.0614069,9.65419737 C25.0614069,9.27310111 25.508186,8.95219427 26.0150033,8.95219427 C26.5218205,8.95219427 26.9685996,9.27310111 26.9685996,9.65419737 L26.9685996,12.2148333 L28.2423996,12.2148333 L28.2423996,2.42691615 C28.2423996,2.04581989 28.6891787,1.72491305 29.1959959,1.72491305 C29.7028132,1.72491305 30.1495923,2.04581989 30.1495923,2.42691615 L30.1495923,6.64555355 L31.4232891,6.64555355 L31.4232891,1.9790117 C31.4232891,1.59791543 31.8700682,1.27700859 32.3768855,1.27700859 C32.8837027,1.27700859 33.3304818,1.59791543 33.3304818,1.9790117 L33.3304818,6.64555355 L34.6041787,6.64555355 L34.6041787,2.42691615 C34.6041787,2.04581989 35.0509577,1.72491305 35.557775,1.72491305 C36.0712976,1.72491305 36.5113713,2.04581989 36.5113713,2.42691615 L36.5113713,6.64555355 L37.7850682,6.64555355 L37.7850682,3.12891926 C37.7850682,2.74782299 38.2318473,2.42691615 38.7386645,2.42691615 C38.9921247,2.42691615 39.2521871,2.49372434 39.4389038,2.6810148 C39.3722635,2.80801242 39.5055441,2.93511345 39.5055441,3.12891926 L39.5055441,14.12683 L36.538502,18.1582804 Z" id="Shape" fill="#FFFFFF" fill-rule="nonzero"></path>
    </g>
</svg>
