<?xml version="1.0" encoding="UTF-8" standalone="no"?>
<svg width="60px" height="59px" viewBox="0 0 60 59" version="1.1" xmlns="http://www.w3.org/2000/svg" xmlns:xlink="http://www.w3.org/1999/xlink">
    <!-- Generator: Sketch 47.1 (45422) - http://www.bohemiancoding.com/sketch -->
    <title>user</title>
    <desc>Created with Sketch.</desc>
    <defs></defs>
    <g id="Page-1" stroke="none" stroke-width="1" fill="none" fill-rule="evenodd">
        <g id="user" fill-rule="nonzero">
            <path d="M42.9791336,37.4603175 L41.1382942,37.4603175 L41.1382942,19.2240061 L51.2769243,4.81002039 C51.8262839,3.97351996 51.5564492,2.67032449 50.7275646,2.11591728 C50.2649695,1.83382406 49.8023744,1.74626232 49.2530147,1.83382406 C48.7036551,1.93101457 48.3278245,2.20347901 48.0579897,2.67032449 L37.5530702,17.5511557 L20.5815092,17.5511557 L10.0767387,2.76766546 C9.79721377,2.30081998 9.33461865,2.01872676 8.78525899,1.93116502 C8.32266387,1.74641277 7.86006875,1.83397451 7.40716382,2.11591728 C6.48197358,2.67032449 6.29890338,3.97351996 6.85780416,4.81002039 L16.986744,19.1364444 L16.986744,37.3629765 L15.1460537,37.3629765 L15.1460537,19.7881926 L5.28679952,5.92861405 C4.17853908,4.15842266 4.6411342,1.74641277 6.39520904,0.62781911 C7.22409363,0.073411896 8.23589933,-0.12111959 9.24785411,0.073411896 C10.2598089,0.258164151 11.0885444,0.909912332 11.6475943,1.74626232 L21.5066994,15.6934026 L36.6183388,15.6934026 L46.477444,1.74626232 C47.0268036,0.909761883 47.8555392,0.355505119 48.8771841,0.160973632 C49.8891389,-0.0237786224 50.9010937,0.160973632 51.7298292,0.715380846 C53.483904,1.83382406 53.9464992,4.2459844 52.8380896,6.01602534 L42.9789845,19.9729448 L42.9789845,37.4603175 L42.9791336,37.4603175 Z" id="Shape" fill="#193651"></path>
            <ellipse id="Oval" fill="#D3D7DA" cx="29.0625" cy="8.42857143" rx="5.625" ry="5.61904762"></ellipse>
            <g id="Group" transform="translate(23.437500, 0.936508)" fill="#193651">
                <path d="M6.58474067,12.9062686 C2.9611647,12.9062686 0.0856566293,9.96563366 0.0856566293,6.47736458 C0.0856566293,2.89291761 3.05839249,0.0484605694 6.58474067,0.0484605694 C10.1110888,0.0484605694 13.0838247,2.98909549 13.0838247,6.47736458 C13.083975,10.0616629 10.2083166,12.9062686 6.58474067,12.9062686 Z M6.58474067,1.88371882 C3.98122996,1.88371882 1.94109944,3.99784832 1.94109944,6.47721592 C1.94109944,8.95658352 4.07830748,11.070713 6.58474067,11.070713 C9.18825137,11.070713 11.2283819,8.95658352 11.2283819,6.47721592 C11.2283819,3.99784832 9.18825137,1.88371882 6.58474067,1.88371882 Z" id="Shape"></path>
                <rect id="Rectangle-path" x="5.65213533" y="20.0751625" width="1.85544281" height="1.8354069"></rect>
                <rect id="Rectangle-path" x="5.65213533" y="24.5821441" width="1.85544281" height="1.8354069"></rect>
                <rect id="Rectangle-path" x="5.65213533" y="28.9834341" width="1.85544281" height="1.8354069"></rect>
            </g>
            <path d="M15.9375,59 L15.9375,55.4433664 C15.9375,51.2303311 12.5510095,47.7619048 8.4375,47.7619048 L8.4375,47.7619048 C4.32399054,47.7619048 0.9375,51.2303311 0.9375,55.4433664 L0.9375,59 L15.9375,59 Z" id="Shape" fill="#FDBF5E"></path>
            <path d="M16.7790401,59 L0,59 L0,54.5055798 C0,49.8251606 3.75845396,45.8888889 8.4375,45.8888889 C13.0205861,45.8888889 16.875,49.7271628 16.875,54.5055798 L16.875,59 L16.7790401,59 Z M1.83124703,57.129862 L14.9381526,57.129862 L14.9381526,54.5057313 C14.9381526,50.8534564 12.0041825,47.7593299 8.3415401,47.7593299 C4.76521713,47.7593299 1.74492762,50.75561 1.74492762,54.5057313 L1.74492762,57.129862 L1.83124703,57.129862 Z" id="Shape" fill="#193651"></path>
            <path d="M37.5,59 L37.5,55.4433664 C37.5,51.2303311 34.1135095,47.7619048 30,47.7619048 L30,47.7619048 C25.8864905,47.7619048 22.5,51.2303311 22.5,55.4433664 L22.5,59 L37.5,59 Z" id="Shape" fill="#F16051"></path>
            <path d="M38.4375,59 L21.5625,59 L21.5625,54.5055798 C21.5625,49.8251606 25.320954,45.8888889 30,45.8888889 C34.5830861,45.8888889 38.4375,49.7271628 38.4375,54.5055798 L38.4375,59 L38.4375,59 Z M23.3938953,57.129862 L36.5008009,57.129862 L36.5008009,54.5057313 C36.5008009,50.8534564 33.5668308,47.7593299 29.8946963,47.7593299 C26.3183733,47.7593299 23.2885916,50.75561 23.2885916,54.5057313 L23.2885916,57.129862 L23.3938953,57.129862 Z" id="Shape" fill="#193651"></path>
            <path d="M58.125,59 L58.125,55.4433664 C58.125,51.2303311 54.7385095,47.7619048 50.625,47.7619048 L50.625,47.7619048 C46.5114905,47.7619048 43.125,51.2303311 43.125,55.4433664 L43.125,59 L58.125,59 Z" id="Shape" fill="#4FBF9F"></path>
            <g id="Group" transform="translate(4.687500, 45.888889)" fill="#193651">
                <path d="M54.9225373,13.0749923 L37.8824163,13.0749923 L37.8824163,8.60935874 C37.8824163,3.95891746 41.6993516,0.0478573615 46.4512033,0.0478573615 C51.105602,0.0478573615 55.0199903,3.86154729 55.0199903,8.60935874 L55.0199903,13.0749923 L54.9225373,13.0749923 Z M39.742308,11.2168325 L53.0531563,11.2168325 L53.0531563,8.60950923 C53.0531563,4.98062698 50.0735338,1.90631823 46.344261,1.90631823 C42.7122907,1.90631823 39.6450056,4.88340731 39.6450056,8.60950923 L39.6450056,11.2168325 L39.742308,11.2168325 Z" id="Shape"></path>
                <rect id="Rectangle-path" x="0.0823907346" y="7.02359453" width="1.85974113" height="1.85815988"></rect>
                <rect id="Rectangle-path" x="5.75921778" y="7.02359453" width="1.85974113" height="1.85815988"></rect>
                <rect id="Rectangle-path" x="21.3096782" y="7.02359453" width="1.85974113" height="1.85815988"></rect>
                <rect id="Rectangle-path" x="27.0838076" y="7.02359453" width="1.85974113" height="1.85815988"></rect>
                <rect id="Rectangle-path" x="42.634268" y="7.02359453" width="1.85974113" height="1.85815988"></rect>
                <rect id="Rectangle-path" x="48.3109444" y="7.02359453" width="1.85974113" height="1.85815988"></rect>
            </g>
            <ellipse id="Oval" fill="#FFFFFF" cx="8.90625" cy="39.8015873" rx="4.21875" ry="4.21428571"></ellipse>
            <path d="M8.90625,44.952381 C6.09278504,44.952381 3.75,42.6119236 3.75,39.8015873 C3.75,36.991251 6.09293668,34.6507937 8.90625,34.6507937 C11.7195633,34.6507937 14.0625,36.991251 14.0625,39.8015873 C13.9643911,42.7099286 11.7195633,44.952381 8.90625,44.952381 Z M8.90625,36.6190742 C7.12209409,36.6190742 5.62225676,38.1173244 5.62225676,39.8995923 C5.62225676,41.6818603 7.12209409,43.1801105 8.90625,43.1801105 C10.6904059,43.1801105 12.1902432,41.6818603 12.1902432,39.8995923 C12.1803869,38.1173244 10.6805495,36.6190742 8.90625,36.6190742 Z" id="Shape" fill="#193651"></path>
            <ellipse id="Oval" fill="#FFFFFF" cx="29.53125" cy="39.8015873" rx="4.21875" ry="4.21428571"></ellipse>
            <path d="M29.53125,44.952381 C26.717785,44.952381 24.375,42.6119236 24.375,39.8015873 C24.375,36.991251 26.7179367,34.6507937 29.53125,34.6507937 C32.3445633,34.6507937 34.6875,36.991251 34.6875,39.8015873 C34.6875,42.7099286 32.344715,44.952381 29.53125,44.952381 Z M29.53125,36.6190742 C27.7470941,36.6190742 26.2472568,38.1173244 26.2472568,39.8995923 C26.2472568,41.6818603 27.7470941,43.1801105 29.53125,43.1801105 C31.3154059,43.1801105 32.8152432,41.6818603 32.8152432,39.8995923 C32.8152432,38.1173244 31.3154059,36.6190742 29.53125,36.6190742 Z" id="Shape" fill="#193651"></path>
            <ellipse id="Oval" fill="#FFFFFF" cx="51.09375" cy="39.8015873" rx="4.21875" ry="4.21428571"></ellipse>
            <path d="M51.09375,44.952381 C48.280285,44.952381 45.9375,42.6119236 45.9375,39.8015873 C45.9375,36.991251 48.2804367,34.6507937 51.09375,34.6507937 C53.907215,34.6507937 56.25,36.991251 56.25,39.8015873 C56.25,42.7099286 54.0051722,44.952381 51.09375,44.952381 Z M51.09375,36.6190742 C49.3095941,36.6190742 47.8097568,38.1173244 47.8097568,39.8995923 C47.8097568,41.6818603 49.3095941,43.1801105 51.09375,43.1801105 C52.8779059,43.1801105 54.3777432,41.6818603 54.3777432,39.8995923 C54.3777432,38.1173244 52.9661584,36.6190742 51.09375,36.6190742 Z" id="Shape" fill="#193651"></path>
        </g>
    </g>
</svg>
