<?xml version="1.0" encoding="UTF-8" standalone="no"?>
<svg width="45px" height="46px" viewBox="0 0 45 46" version="1.1" xmlns="http://www.w3.org/2000/svg" xmlns:xlink="http://www.w3.org/1999/xlink">
    <!-- Generator: Sketch 47.1 (45422) - http://www.bohemiancoding.com/sketch -->
    <title>Group</title>
    <desc>Created with Sketch.</desc>
    <defs></defs>
    <g id="Symbols" stroke="none" stroke-width="1" fill="none" fill-rule="evenodd">
        <g id="Group" fill-rule="nonzero" fill="#FFFFFF">
            <path d="M33.8478375,29 L32.4129268,29 L32.4129268,14.8823132 L40.3158589,3.72368952 C40.7440777,3.07611058 40.533745,2.06723849 39.8876401,1.63804274 C39.5270531,1.41965955 39.1664662,1.35187341 38.7382474,1.41965955 C38.3100286,1.49489984 38.0170734,1.70582888 37.8067407,2.06723849 L29.6182906,13.5872718 L16.3891764,13.5872718 L8.20084248,2.14259525 C7.98295638,1.78118564 7.62236941,1.56280245 7.1941506,1.49501631 C6.83356363,1.35198988 6.47297666,1.41977603 6.11994308,1.63804274 C5.39876915,2.06723849 5.25606828,3.07611058 5.69172427,3.72368952 L13.587103,14.8145271 L13.587103,28.9246432 L12.1523086,28.9246432 L12.1523086,15.3190796 L4.46714629,4.58965164 C3.60327149,3.21925347 3.96385846,1.35198988 5.3311373,0.48602776 C5.97724221,0.0568320059 6.76593179,-0.0937650388 7.55473757,0.0568320059 C8.34354334,0.199858434 8.98953205,0.704410945 9.42530425,1.35187341 L17.1103503,12.1490875 L28.8896795,12.1490875 L36.5747256,1.35187341 C37.0029444,0.704294474 37.6489331,0.275215191 38.4452922,0.124618147 C39.234098,-0.0184082809 40.0229038,0.124618147 40.6688925,0.553813901 C42.0361714,1.41965955 42.3967583,3.28703962 41.5327673,4.65732131 L33.8477213,15.462106 L33.8477213,29 L33.8478375,29 Z" id="Shape"></path>
            <path d="M22,11 C19.212241,11 17,8.71295782 17,6 C17,3.21224103 19.2870422,1 22,1 C24.7129578,1 27,3.28704218 27,6 C27.0001156,8.78764336 24.787759,11 22,11 Z M22,2.42734924 C19.9970172,2.42734924 18.4274649,4.07158713 18.4274649,5.99988439 C18.4274649,7.92818165 20.0717027,9.57241953 22,9.57241953 C24.0029828,9.57241953 25.5725351,7.92818165 25.5725351,5.99988439 C25.5725351,4.07158713 24.0029828,2.42734924 22,2.42734924 Z" id="Shape"></path>
            <rect id="Rectangle-path" x="21" y="17" width="2" height="2"></rect>
            <rect id="Rectangle-path" x="21" y="21" width="2" height="2"></rect>
            <rect id="Rectangle-path" x="21" y="25" width="2" height="2"></rect>
            <path d="M12.9260753,46 L0,46 L0,42.5720524 C0,39.0022412 2.89540157,36 6.5,36 C10.0306738,36 13,38.9274971 13,42.5720524 L13,46 L12.9260753,46 Z M1.41073846,44.5736235 L11.5079101,44.5736235 L11.5079101,42.5721679 C11.5079101,39.7865345 9.24766651,37.4266075 6.42607534,37.4266075 C3.67098209,37.4266075 1.34424054,39.7119059 1.34424054,42.5721679 L1.34424054,44.5736235 L1.41073846,44.5736235 Z" id="Shape"></path>
            <path d="M31,46 L16,46 L16,42.5720524 C16,39.0022412 19.340848,36 23.5,36 C27.5738543,36 31,38.9274971 31,42.5720524 L31,46 L31,46 Z M17.627907,44.5736235 L29.2784897,44.5736235 L29.2784897,42.5721679 C29.2784897,39.7865345 26.6705163,37.4266075 23.4063967,37.4266075 C20.2274429,37.4266075 17.5343036,39.7119059 17.5343036,42.5721679 L17.5343036,44.5736235 L17.627907,44.5736235 Z" id="Shape"></path>
            <path d="M44.9260753,46 L32,46 L32,42.5720524 C32,39.0022412 34.8954016,36 38.5,36 C42.0306738,36 45,38.9274971 45,42.5720524 L45,46 L44.9260753,46 Z M33.4108527,44.5736235 L43.5080244,44.5736235 L43.5080244,42.5721679 C43.5080244,39.7865345 41.2477808,37.4266075 38.4188771,37.4266075 C35.6637839,37.4266075 33.3370423,39.7119059 33.3370423,42.5721679 L33.3370423,44.5736235 L33.4108527,44.5736235 Z" id="Shape"></path>
            <rect id="Rectangle-path" x="4" y="40" width="2" height="2"></rect>
            <rect id="Rectangle-path" x="8" y="40" width="2" height="2"></rect>
            <rect id="Rectangle-path" x="18" y="40" width="2" height="2"></rect>
            <rect id="Rectangle-path" x="24" y="40" width="2" height="2"></rect>
            <rect id="Rectangle-path" x="37" y="40" width="2" height="2"></rect>
            <rect id="Rectangle-path" x="39" y="40" width="2" height="2"></rect>
            <path d="M7,36 C4.81743324,36 3,34.1824491 3,32 C3,29.8175509 4.81755088,28 7,28 C9.18244912,28 11,29.8175509 11,32 C10.9238913,34.2585578 9.18244912,36 7,36 Z M7,29.5285261 C5.61592754,29.5285261 4.45241736,30.6920362 4.45241736,32.0761087 C4.45241736,33.4601812 5.61592754,34.6236913 7,34.6236913 C8.38407246,34.6236913 9.54758264,33.4601812 9.54758264,32.0761087 C9.53993648,30.6920362 8.3764263,29.5285261 7,29.5285261 Z" id="Shape"></path>
            <path d="M22,36 C19.8174332,36 18,34.1824491 18,32 C18,29.8175509 19.8175509,28 22,28 C24.1824491,28 26,29.8175509 26,32 C26,34.2585578 24.1825668,36 22,36 Z M22,29.5285261 C20.6159275,29.5285261 19.4524174,30.6920362 19.4524174,32.0761087 C19.4524174,33.4601812 20.6159275,34.6236913 22,34.6236913 C23.3840725,34.6236913 24.5475826,33.4601812 24.5475826,32.0761087 C24.5475826,30.6920362 23.3840725,29.5285261 22,29.5285261 Z" id="Shape"></path>
            <path d="M38,36 C35.8174332,36 34,34.1824491 34,32 C34,29.8175509 35.8175509,28 38,28 C40.1825668,28 42,29.8175509 42,32 C42,34.2585578 40.2585578,36 38,36 Z M38,29.5285261 C36.6159275,29.5285261 35.4524174,30.6920362 35.4524174,32.0761087 C35.4524174,33.4601812 36.6159275,34.6236913 38,34.6236913 C39.3840725,34.6236913 40.5475826,33.4601812 40.5475826,32.0761087 C40.5475826,30.6920362 39.452535,29.5285261 38,29.5285261 Z" id="Shape"></path>
        </g>
    </g>
</svg>
